<svg width="82" height="45" viewBox="0 0 82 45" fill="none" xmlns="http://www.w3.org/2000/svg">
<path d="M3.13653 36.1022C4.94786 37.5462 6.97023 38.7441 9.14207 39.6549C11.6129 40.6887 13.6528 41.0908 15.1124 41.3697C17.9526 41.9112 20.0541 41.9605 23.2283 42.0261C25.8925 42.0835 28.5568 42.0097 31.221 41.821C33.4896 41.6569 36.1626 41.3615 38.5719 41.0908C39.5391 40.9841 40.137 40.9102 40.6206 40.861C45.6765 40.3031 49.6334 39.9831 51.0226 39.8764C52.6229 39.7533 54.4255 39.6139 56.8523 39.4826C59.1473 39.3595 61.1257 39.2939 62.6996 39.2528C64.2823 39.2364 65.953 39.2693 67.694 39.3513C69.4086 39.4334 71.044 39.5564 72.5916 39.7041C73.5588 39.8108 74.6052 39.9585 75.7131 40.18C76.6891 40.3687 77.6035 40.5902 78.4389 40.82L82 42.1738C80.9009 41.9687 79.7578 41.78 78.5708 41.6077C77.7706 41.4928 76.988 41.3943 76.2231 41.3123C75.335 41.2302 74.0512 41.1236 72.5037 41.0825C70.6835 41.0333 69.1184 41.0743 65.7595 41.2713C63.5877 41.4025 61.5038 41.5256 58.4878 41.7882C56.5622 41.9523 53.3527 42.1738 49.2553 42.7564C47.0043 43.0763 44.7181 43.3881 42.3968 43.6753C40.6294 43.8968 38.8796 44.1102 37.1474 44.3071C35.4592 44.5368 33.6303 44.7255 31.6695 44.824C30.3769 44.8896 29.1459 44.9142 27.9765 44.906C26.5608 44.9307 25.3474 44.9142 24.3977 44.8814C23.3954 44.8486 22.4281 44.7912 21.4961 44.7173C20.5377 44.6353 19.5177 44.5204 18.445 44.3645C17.2843 44.1922 16.2028 43.9871 15.1916 43.7656C14.242 43.5112 13.3099 43.2076 12.3954 42.863C11.5337 42.5348 10.7424 42.1902 10.0302 41.8538C8.89587 41.2548 8.00779 40.8446 6.92626 40.0487C6.40748 39.5728 5.58095 39.0395 5.03579 38.457C4.37633 37.7021 3.73444 36.9226 3.13653 36.1022Z" fill="#F08720"/>
<path d="M30.4383 14.9239C29.9563 13.8994 29.1501 13.047 28.1336 12.465C26.1093 11.3503 23.8835 10.6208 21.5613 10.3012C20.5974 10.1946 19.537 10.1127 18.4066 10.0881C17.2236 10.0553 16.0406 10.0881 14.8663 10.1701C11.0895 10.4159 7.49662 11.8175 4.64863 14.1617C1.87075 16.4976 0.20577 19.7597 0.0129835 23.2432C-0.092173 25.1201 0.468662 26.5381 0.714027 27.2184C1.10836 28.3249 1.66044 29.3658 2.36148 30.333C3.15892 31.2674 4.05275 32.128 5.03421 32.8984C6.19969 33.8 7.47033 34.5787 8.8286 35.2098C12.474 36.8901 16.137 36.9884 17.9422 36.931C20.2819 36.972 22.6129 36.6278 24.8212 35.9065C25.531 35.6688 26.2933 35.3901 27.082 35.0459C27.8006 34.7344 28.4666 34.4148 29.0712 34.1033L27.2748 30.6608L24.3392 31.4395C22.35 31.751 20.3257 31.751 18.3365 31.4395C16.6978 30.9723 15.1993 30.1527 13.955 29.0544C12.7895 28.0216 12.1235 26.5873 12.1147 25.0873L16.3911 25.0218C18.0911 24.9316 19.7824 24.7267 21.4561 24.3825C22.683 24.1366 23.8835 23.8251 25.0665 23.4481C26.0392 23.2022 26.9506 22.8006 27.7743 22.2596C28.2826 21.9318 29.0975 21.3826 29.8073 20.3745C30.3594 19.5794 30.7274 18.686 30.8764 17.7516C30.9991 16.8009 30.8501 15.8173 30.4383 14.9239ZM21.8768 19.227C20.7376 20.7269 18.8185 20.8826 18.503 20.9072L11.9921 20.8908C11.9482 20.44 11.7817 18.1779 13.5431 16.2435C13.7622 15.9976 15.1906 14.4813 17.5741 14.1371C18.2927 14.0305 19.5546 13.8584 20.7989 14.5305C21.1056 14.7026 22.3237 15.3583 22.5953 16.6861C22.8582 17.9484 22.1046 18.9319 21.8768 19.227Z" fill="#F58220"/>
<path d="M10.3059 0.128459C11.1546 3.09293 13.0356 5.68579 15.634 7.45941C16.7801 8.10974 17.9962 8.62493 19.2561 8.99655C21.6096 9.69755 24.033 9.64687 26.124 9.65532H26.3165C24.7942 8.46446 23.2019 7.35806 21.5483 6.33612C19.6673 5.17905 17.7075 4.14021 15.6778 3.22807C16.7102 3.48989 17.5588 3.75171 18.1975 3.96285C18.9149 4.18244 19.6236 4.45271 20.306 4.74831C20.9534 5.04391 21.5833 5.3733 22.187 5.73647C22.7732 6.0743 23.2019 6.36146 24.3392 7.13003C25.0217 7.59454 25.8878 8.18575 26.8852 8.87831C26.3252 7.45941 25.5728 6.12498 24.6367 4.90878C23.7356 3.73481 23.0881 2.88179 21.8808 2.15545C20.7872 1.49668 19.0549 0.82946 19.0549 0.82946C16.2115 0.0608927 13.2456 -0.17559 10.3059 0.128459Z" fill="#68BD45"/>
<path d="M27.3329 23.8384C28.0188 24.9876 28.6432 26.1781 29.1972 27.3935C29.6193 28.3194 29.9359 29.1627 30.5778 30.8411C31.1758 32.4202 31.4836 33.2139 31.7826 34.1729C32.1168 35.2477 32.4333 36.4465 32.6972 37.7528C34.7461 37.8603 36.8039 37.6618 38.7913 37.1741C39.6619 36.9426 40.4973 36.6201 41.28 36.2067C42.0187 35.7355 42.6782 35.1568 43.2146 34.4788C43.4784 34.115 43.8566 33.5776 44.2699 32.8997C44.9206 31.8497 45.3252 31.0229 45.501 30.6674C47.5764 26.4675 45.9319 30.0804 48.3766 24.938C50.1266 21.2506 51.6392 17.9849 52.7296 15.6121C53.0286 14.9672 53.3716 14.2975 53.7673 13.6031C53.9871 13.2145 54.207 12.8507 54.4356 12.4952C54.8313 11.9578 55.3326 11.4948 55.9042 11.131L56.9067 10.4944H47.5148C46.3189 10.7011 45.2548 11.346 44.5513 12.2885C43.5576 14.5952 42.5639 16.9763 41.5878 19.4235C40.427 22.3585 39.3541 25.2191 38.3604 28.0218C37.1996 24.351 35.4145 20.8786 33.0841 17.7451C32.873 19.3987 32.0288 20.9199 30.7097 22.0195C30.2349 22.4246 29.716 22.7884 29.1708 23.1026C28.5992 23.425 27.9836 23.6648 27.3329 23.8384Z" fill="#68BD45"/>
<path d="M79.7422 34.6395C79.6191 34.0314 79.54 33.4069 79.5224 32.7823C79.4521 31.2538 79.4521 30.0376 79.4433 29.2323C79.4257 26.1753 79.3994 26.1917 79.4257 25.3042C79.4433 24.9509 79.4785 24.014 79.4873 23.0854C79.4873 22.9786 79.4873 22.6335 79.496 22.1404C79.5048 21.5898 79.5048 21.4008 79.5048 21.2118C79.5224 20.5708 79.5048 19.9381 79.4433 19.3053C79.3554 18.1877 79.0214 17.0947 78.4677 16.1004C78.1249 15.4101 77.703 14.7609 77.202 14.161C76.2263 13.0188 75.1628 12.4106 74.4156 11.9915C73.5806 11.5231 72.6841 11.1533 71.7524 10.8822C70.6009 10.5288 69.4056 10.3069 68.1926 10.2165C67.6037 10.159 67.0324 10.1343 66.5489 10.1179C66.1094 10.1015 65.3887 10.0686 64.4834 10.0768C63.4901 10.085 62.787 10.0933 61.8377 10.2001C61.0642 10.2905 60.4401 10.3644 59.6227 10.6356C58.9459 10.8575 58.2955 11.1616 57.6978 11.5478C56.687 12.2381 55.8695 13.142 55.307 14.1857C55.0257 14.6705 54.7445 15.18 54.4632 15.7224C54.1468 16.3469 53.8567 16.9468 53.6018 17.5221C55.0433 16.9139 56.5463 16.4373 58.0845 16.1004C59.4205 15.8128 61.1785 15.443 63.4638 15.5991C65.0986 15.7059 67.2169 15.8785 68.5617 17.292C68.6936 17.4317 69.6429 18.4507 69.3089 19.0423C69.0715 19.4532 68.3068 19.4614 67.6564 19.4779C66.0479 19.5025 64.4482 19.5847 62.8485 19.6915C61.1345 19.7984 59.4381 20.086 57.7945 20.5462C56.476 20.8913 55.2103 21.3679 53.9973 21.9678C52.6525 22.6088 51.5011 23.5621 50.6749 24.7454C49.1103 26.956 49.2773 29.2487 49.3125 29.6349C49.4795 31.2045 50.1299 32.6919 51.2022 33.9081C53.1184 36.094 55.6674 36.6282 56.4321 36.7679C58.9019 37.0309 61.3982 36.998 63.8593 36.6611C66.2237 36.4392 68.4035 35.3545 69.9241 33.637C70.8383 34.9764 72.2973 35.9215 73.9674 36.2502C74.9166 36.3324 75.9538 36.3899 77.0701 36.3899C78.1864 36.3899 79.2499 36.3324 80.208 36.2502C80.0146 35.716 79.8564 35.1819 79.7422 34.6395ZM69.5813 25.9781C69.4847 26.8163 69.4231 27.3093 69.1419 27.9339C68.8694 28.542 68.4738 29.0844 67.9728 29.5528C67.4191 30.054 66.7599 30.4403 66.0303 30.695C65.1338 31.0155 64.1669 31.1552 63.2089 31.1059C62.2068 31.0566 61.2048 31.0073 60.2995 30.3006C60.0973 30.1444 59.1393 29.372 59.0162 28.0818C58.9107 27.0053 59.4557 26.1917 59.6403 25.9205C60.8532 24.162 63.3495 23.825 65.459 23.5456C66.8478 23.3648 68.2541 23.3402 69.6517 23.4717C69.6956 24.3099 69.678 25.1481 69.5813 25.9781Z" fill="#68BD45"/>
</svg>
