<svg xmlns="http://www.w3.org/2000/svg" viewBox="0 0 322.77 73.81"><defs><style>.cls-1{fill:#474530;}.cls-1,.cls-2,.cls-3,.cls-4{fill-rule:evenodd;}.cls-2{fill:#fff;}.cls-3{fill:#94c22b;}.cls-4{fill:#6b8c26;}</style></defs><title>logo</title><g id="Слой_2" data-name="Слой 2"><g id="Слой_1-2" data-name="Слой 1"><path class="cls-1" d="M284.59,26.43a4.46,4.46,0,0,0-4.42-4.36h-4a4.4,4.4,0,0,0-3.91,2.41L260.59,43.2V26.43a4.38,4.38,0,0,0-4.36-4.36h-4a4.38,4.38,0,0,0-4.36,4.36v30a4.38,4.38,0,0,0,4.36,4.37h4.46a4.35,4.35,0,0,0,3.61-1.91L271.78,42l.05,14.41a4.32,4.32,0,0,0,4.31,4.37h4.53A4.31,4.31,0,0,0,285,56.4Z"/><path class="cls-1" d="M123.16,8.9H89.47a4.37,4.37,0,0,0-4.35,4.36v2.93a4.39,4.39,0,0,0,4.35,4.36h10V56.4a4.39,4.39,0,0,0,4.37,4.37h5a4.38,4.38,0,0,0,4.36-4.37V20.55h10a4.39,4.39,0,0,0,4.36-4.36V13.26a4.38,4.38,0,0,0-4.36-4.36"/><path class="cls-1" d="M158.07,47.13V38.08c0-9.86-4.38-16.46-17.13-16.46-9.64,0-15.19,3.72-15.19,8.16,0,3.34,1.69,4.89,3.48,5.63,2.14-1.56,4.81-2.65,9.48-2.65,4.38,0,7.6,1.28,7.71,4.5h-6.14c-.26,0-6,0-9.69,1.5-.45.21-.9.44-1.31.68a2.6,2.6,0,0,1-.36.21,11,11,0,0,0-5.4,9.71c0,7.71,5.86,11.79,12.82,11.79,6.23,0,9.34-3.49,10.31-5.71l.15.08c1,3.48,3,5.54,7,5.54,5.12,0,7-3.4,7.34-5.69-1.64-.67-3-3-3-8.23m-17.18-3.25h5.54v2.06a6,6,0,0,1-6.09,6c-2.88,0-5-1.69-5-4.06,0-2.82,2.65-4,5.55-4Z"/><path class="cls-1" d="M316.54,47.28a9.41,9.41,0,0,1-7.05,3h-.25a8.12,8.12,0,0,1-5-1.65A6.92,6.92,0,0,1,302.21,46a9.92,9.92,0,0,1-1-4.39,9.78,9.78,0,0,1,1.05-4.43,7.16,7.16,0,0,1,2.56-2.93.57.57,0,0,1,.13-.08.91.91,0,0,1,.13-.08,8.42,8.42,0,0,1,2.95-1,1,1,0,0,0,.24,0l.22,0a4,4,0,0,1,.49,0h.28a7.85,7.85,0,0,1,6.48,3.23c4.11,0,6.67-2.46,6.67-5.56,0-4.6-4.37-9.34-13.86-9.34-10,0-19.79,6.15-19.79,20.31s10.15,19.8,20.17,19.8c8.07,0,13.86-3.79,13.86-8.6,0-3-2.7-5.37-6.23-5.56"/><path class="cls-1" d="M195.09,26.89h0l-.09-.06a1,1,0,0,0-.23-.13,16.2,16.2,0,0,0-8.45-2.27,15.39,15.39,0,0,0-10.84,4.14c1-6.36,4.09-8.94,12.59-9.61,9.87-.74,13.06-3.26,13.06-8.08,0-3.49-3-5.35-6.16-5.49-1.18,1.48-2.83,2.74-9.93,3.5-15.34,1.62-22.53,11.63-22.53,29,0,14.22,6.59,23.34,19.35,23.34,10.37,0,19.42-5.93,19.42-18.68,0-7.64-1.83-12.87-6.19-15.64m-6.73,17.4c0,.16-.05.33-.07.49h0a6.47,6.47,0,0,1-12.9,0h0c0-.13,0-.28-.07-.42a.06.06,0,0,0,0,0,65.47,65.47,0,0,1-.34-10,13.23,13.23,0,0,1,6.87-1.52,6.78,6.78,0,0,1,6.48,6.08h0a18.46,18.46,0,0,1,.2,2.63h0v.46a16.8,16.8,0,0,1-.16,2.35"/><path class="cls-1" d="M228.26,21.71a11.31,11.31,0,0,0-10.15,5.85V26.45a4.39,4.39,0,0,0-4.37-4.37h-4a4.38,4.38,0,0,0-4.36,4.37v43a4.38,4.38,0,0,0,4.36,4.37h4a4.39,4.39,0,0,0,4.37-4.37V56.57c1.77,2.52,6,4.45,10.07,4.45,8.69,0,15.73-5.35,15.73-19.44,0-14.31-6.82-19.87-15.65-19.87m2.45,22.95h0c-.52,3.35-3.11,5.93-6.24,5.93h-.65a5.23,5.23,0,0,1-3-1,6.06,6.06,0,0,1-2.15-2.8,21.4,21.4,0,0,1-.62-6.09c0-.69.09-1.37.18-2h0c.46-3.46,3.07-6.09,6.23-6.09s5.79,2.63,6.25,6.09h0a20.28,20.28,0,0,1,.2,2.89,21,21,0,0,1-.22,3"/><path class="cls-2" d="M11,9.19A34.07,34.07,0,0,1,34.2,18.33,34.11,34.11,0,0,1,57.46,9.19,34,34,0,0,0,34.17,0c-.5,0-1,0-1.49,0h-.17A34,34,0,0,0,10.88,9.19H11"/><path class="cls-3" d="M45.14,43.3a33.61,33.61,0,0,1,6.33-4.65,34.15,34.15,0,0,1,16.86-4.5,34,34,0,0,0-10.87-25A34.11,34.11,0,0,0,34.2,18.33a34.13,34.13,0,0,1,10.94,25"/><path class="cls-3" d="M16.94,38.65a33.16,33.16,0,0,1,6.32,4.66,34.14,34.14,0,0,1,10.94-25A34.07,34.07,0,0,0,10.94,9.19h-.06A34.09,34.09,0,0,0,0,34.15a34,34,0,0,1,16.94,4.5"/><path class="cls-1" d="M45.14,43.3A34.08,34.08,0,0,0,34.21,67.61s0,0,0,0c0,.2,0,.39,0,.6h0A34,34,0,0,0,23.26,43.3v.1A34,34,0,0,0,27.58,60a34.52,34.52,0,0,0,6.55,8.38h.07v0h.07A34.46,34.46,0,0,0,40.82,60,34.08,34.08,0,0,0,45.14,43.4Zm-11,25h0Z"/><path class="cls-4" d="M0,34.15H0s0,0,0,.05A34.2,34.2,0,0,0,32.33,68.34h.1l1,0,.72,0A34.52,34.52,0,0,1,27.58,60,34.1,34.1,0,0,1,23.26,43.4v-.1a33.29,33.29,0,0,0-6.33-4.65A33.91,33.91,0,0,0,0,34.15"/><path class="cls-4" d="M34.2,18.33a34.1,34.1,0,0,0-10.94,25A34,34,0,0,1,34.19,68.22h0c0-.2,0-.39,0-.59h0A34.06,34.06,0,0,1,45.14,43.3a34.13,34.13,0,0,0-10.94-25"/><path class="cls-4" d="M68.34,34.15a34.14,34.14,0,0,0-16.87,4.5,33.61,33.61,0,0,0-6.33,4.65v.1A34,34,0,0,1,40.82,60a34.22,34.22,0,0,1-6.55,8.38l.91,0,.74,0A34.22,34.22,0,0,0,68.34,34.2v-.05"/></g></g></svg>