<svg xmlns="http://www.w3.org/2000/svg" version="1.1" viewBox="0 0 34.490093 29.70979">
   <path
      d="m 16.389378,6.0359456 c -0.01347,0.047273 0.0024,0.09646 0.01549,0.1420494 0.0262,0.080471 0.06288,0.1574428 0.08238,0.240099 0.02088,0.077142 0.02426,0.1577356 0.02447,0.2372567 0.0016,0.088813 -0.02021,0.1757999 -0.04567,0.2602267 -0.0031,0.00939 -0.0078,0.025128 -0.01117,0.035111 -0.01848,0.059194 -0.04228,0.1166312 -0.06075,0.1757689 -0.01583,0.059794 0.0029,0.1218635 0.03052,0.1751394 0.04569,0.089181 0.107743,0.1729877 0.125425,0.2737737 0.0099,0.048238 0.0081,0.099474 -0.01197,0.1449947 -0.0125,0.029668 -0.02578,0.059018 -0.03858,0.088564 -0.01864,0.00972 -0.02411,0.032267 -0.03636,0.048213 -0.02488,0.042702 -0.05665,0.084903 -0.06241,0.1353431 -0.0027,0.023862 0.01722,0.041727 0.03423,0.055391 0.07703,0.055832 0.173255,0.077998 0.249351,0.1353273 0.04697,0.038312 0.06867,0.105022 0.05435,0.1638351 -0.01613,0.074562 -0.07086,0.1309715 -0.108142,0.1951722 -0.0549,0.087805 -0.124863,0.1671426 -0.164893,0.263583 -0.02619,0.062146 -0.02767,0.1337545 -0.0035,0.1967727 0.02337,0.062261 0.06086,0.1185954 0.103459,0.1693056 0.01541,0.017382 0.03403,0.035786 0.05777,0.038983 0.03786,-0.00691 0.06527,-0.036587 0.09683,-0.056211 0.06243,-0.044738 0.136631,-0.070742 0.212528,-0.08032 0.09839,-0.01381 0.200022,-0.00775 0.297494,-4.704e-4 0.05476,0.00478 0.109672,0.0085 0.164391,0.013039 0.01987,0.00762 0.01591,0.033442 0.02132,0.05028 0.01485,0.095268 0.01704,0.1947088 -0.0094,0.2881663 -0.01544,0.052125 -0.04451,0.1068806 -0.09707,0.1288911 -0.05459,0.020734 -0.113595,-0.00426 -0.168992,0.00991 -0.04182,0.014656 -0.0627,0.058497 -0.07802,0.096955 -0.0362,0.098194 -0.04621,0.2032647 -0.06071,0.3062065 -0.0081,0.063657 -0.01692,0.1274254 -0.03402,0.1893784 -0.01588,0.07701 -0.01895,0.158698 -0.05554,0.229796 -0.01521,0.03021 -0.04394,0.05456 -0.0786,0.05725 -0.0125,0.0025 -0.02676,0.0096 -0.03211,-0.0066 -0.006,-0.01033 -0.01902,-0.01956 -0.01075,-0.03221 0.0089,-0.01321 -0.0097,-0.01852 -0.01649,-0.02725 -0.0727,-0.06622 -0.152501,-0.124811 -0.239309,-0.171238 -0.05921,-0.03142 -0.117902,-0.06831 -0.184748,-0.08067 -0.05739,-0.0089 -0.111168,0.02078 -0.155391,0.05416 -0.09363,0.07013 -0.166485,0.16313 -0.254246,0.239901 -0.04203,0.03774 -0.0896,0.0726 -0.146133,0.08392 -0.09612,0.02063 -0.1956,0.01304 -0.292463,0.0021 -0.05709,-0.0071 -0.113616,-0.01785 -0.169911,-0.02955 -0.02919,0.0495 -0.06538,0.09602 -0.113664,0.128214 -0.09229,0.06366 -0.207167,0.08175 -0.316999,0.08543 -0.06632,0.0021 -0.13335,-10e-4 -0.198037,-0.0057 -0.03438,-0.0035 -0.07001,-0.0018 -0.10406,-0.01154 -0.191454,0.139226 -0.360255,0.306372 -0.549106,0.448909 -0.147602,0.117846 -0.275292,0.262595 -0.442357,0.354572 -0.06358,0.03606 -0.133036,0.0597 -0.198878,0.09108 -0.07949,0.03492 -0.161423,0.07171 -0.249388,0.07612 -0.07143,0.0044 -0.136304,-0.03301 -0.193367,-0.0717 -0.110482,-0.07881 -0.205786,-0.176454 -0.298626,-0.274842 -0.02529,-0.02727 -0.05057,-0.05453 -0.07585,-0.08181 -0.02029,0.0655 -0.03999,0.131705 -0.07328,0.192069 -0.03055,0.05768 -0.06566,0.113067 -0.107554,0.163231 -0.0054,0.0066 -0.01587,0.01921 -0.0232,0.02812 -0.05518,0.06427 -0.109019,0.131695 -0.140988,0.210999 -0.03857,0.08929 -0.06617,0.186521 -0.130766,0.261584 -0.02961,0.03403 -0.06934,0.05615 -0.107106,0.07971 -0.01103,-0.0021 -0.02335,0.0073 -0.03488,0.0097 -0.106758,0.03649 -0.221116,0.03859 -0.33275,0.04213 -0.126605,0.0044 -0.255341,0.0025 -0.378801,0.03479 -0.07303,0.02021 -0.138963,0.05964 -0.202059,0.10059 -0.200233,0.135194 -0.352811,0.327362 -0.518236,0.499033 -0.09741,0.100917 -0.200507,0.198609 -0.320687,0.272096 -0.101554,0.052 -0.208723,0.09248 -0.3082046,0.148705 -0.058343,0.03323 -0.1186637,0.06813 -0.1610348,0.121442 -0.010613,0.01458 -0.021219,0.02915 -0.031825,0.04372 0.044731,0.02263 0.091384,0.04575 0.1229546,0.08619 0.028833,0.03374 0.04687,0.07754 0.043695,0.122404 1.1e-5,0.02969 -0.00132,0.05481 -0.00338,0.08446 -0.00745,0.08636 -0.015141,0.173323 -0.035808,0.257703 -0.011231,0.05027 -0.06071,0.08646 -0.110676,0.09088 -0.067839,0.0035 -0.1280054,-0.0356 -0.1803472,-0.07427 -0.05089,-0.03872 -0.1013219,-0.08239 -0.1648296,-0.09848 -0.073079,-0.02112 -0.1513345,-4.1e-5 -0.215056,0.03795 -0.1085784,0.06449 -0.1934333,0.160052 -0.2803797,0.249936 -0.085508,0.08916 -0.1691192,0.184513 -0.2783623,0.245364 -0.089559,0.05031 -0.1960003,0.05323 -0.2959038,0.04528 -0.1196008,-0.0094 -0.2379533,-0.03463 -0.3583439,-0.03274 -0.0098,1.44e-4 -0.017174,0.005 -0.029442,0.0046 -0.057536,0.0059 -0.1130448,0.03075 -0.1533592,0.07262 -0.0473,0.04569 -0.080379,0.10321 -0.1195389,0.15551 -0.011101,0.015 -0.025694,0.03447 -0.038917,0.0506 -0.056024,0.07262 -0.1290784,0.129214 -0.2037547,0.181347 -0.062832,0.04417 -0.1245736,0.09187 -0.1709326,0.153868 -0.1256421,0.155636 -0.2247096,0.333351 -0.3708326,0.471915 -0.049616,0.04436 -0.1004521,0.08742 -0.1465717,0.135534 -0.016501,0.01071 -0.01047,0.01638 0.00636,0.01963 0.070639,0.02662 0.1454858,0.04595 0.2090927,0.08795 0.044612,0.03058 0.072445,0.08071 0.080988,0.133536 0.011985,0.05475 0.00727,0.111134 0.01345,0.166442 0.00417,0.03987 0.023777,0.08192 0.062785,0.09801 0.060678,0.02523 0.1280624,0.02182 0.1915172,0.03552 0.059471,0.01034 0.1158393,0.03344 0.1679425,0.06353 0.1256501,0.06608 0.2461763,0.143137 0.3788055,0.195024 0.1043453,0.04131 0.2201319,0.05808 0.3308523,0.03534 0.087893,-0.01587 0.1676115,-0.05779 0.2510267,-0.08767 0.1136162,-0.04349 0.2317319,-0.08465 0.3456029,-0.131277 0.07884,-0.0332 0.1570199,-0.06872 0.239463,-0.09236 0.1051382,-0.03204 0.2138792,-0.05046 0.3229485,-0.0627 0.015582,-0.0016 0.038322,-0.0042 0.05455,-0.0057 0.1019142,-0.0092 0.2057769,-0.01796 0.308834,-0.02628 0.092013,-0.006 0.1877103,-0.0063 0.2776951,-0.0024 0.032611,0.0017 0.061768,0.0032 0.094798,0.0062 0.08876,0.0079 0.177009,0.02069 0.265861,0.02762 0.09098,0.0083 0.182064,0.01628 0.272508,0.02943 0.01299,0.0022 0.0325,0.0049 0.04798,0.0077 0.08892,0.01622 0.181667,0.03468 0.255722,0.08988 0.08179,0.05842 0.134084,0.146402 0.18402,0.231439 0.04375,0.07667 0.09177,0.153545 0.153494,0.218254 0.182768,0.201026 0.364244,0.403453 0.534481,0.615304 0.130986,0.156754 0.279605,0.29933 0.394658,0.468974 0.0094,0.01396 0.02149,0.03331 0.03167,0.04952 0.05464,0.08822 0.106547,0.180348 0.183564,0.251543 0.148055,0.141154 0.338398,0.22492 0.498365,0.350433 0.08507,0.06469 0.167464,0.13529 0.265204,0.180545 0.08952,0.04497 0.195693,0.05856 0.292477,0.03038 0.0087,-0.0065 0.0091,-0.02213 0.01483,-0.03208 0.0222,-0.04891 0.07168,-0.07778 0.118817,-0.09878 0.07198,-0.03157 0.154783,-0.04182 0.217331,-0.09247 0.0298,-0.02534 0.04249,-0.06551 0.05957,-0.09689 0.02794,-0.05326 0.085,-0.08399 0.140891,-0.100057 0.07468,-0.02102 0.152887,-0.01436 0.229396,-0.01791 0.08174,-0.0083 0.159259,-0.03334 0.240591,-0.04075 0.0365,-0.0037 0.07597,-0.0025 0.106914,0.01984 0.08763,0.05515 0.157708,0.132784 0.242424,0.19202 0.04673,0.03666 0.09182,0.0755 0.135642,0.115576 0.07321,0.06836 0.137468,0.145803 0.19314,0.229003 0.07858,0.115335 0.150663,0.239059 0.260048,0.328714 0.11214,0.09365 0.243077,0.164232 0.344427,0.270761 0.04436,0.04579 0.07827,0.100875 0.100986,0.16036 0.05956,0.140318 0.10925,0.286932 0.152291,0.431678 0.03079,0.106788 0.0606,0.214075 0.0826,0.323054 0.01812,0.105651 0.0176,0.213006 0.01422,0.319643 -0.0029,0.09412 -0.0088,0.191695 -0.0079,0.28734 2.54e-4,0.210433 -0.0013,0.420861 -0.0038,0.631278 0.0046,-0.0046 0.02008,-0.03274 0.0156,-0.01785 -0.01173,0.04863 -0.01407,0.09894 -0.01577,0.148632 -0.0062,0.0201 -0.0021,0.0423 -0.0042,0.06325 -0.0043,0.170026 -0.0104,0.3419 -0.01971,0.511923 -0.0031,0.01774 0.0026,0.03824 -0.0075,0.05399 -0.01281,0.01208 -0.03233,0.0041 -0.04808,0.0072 -0.07674,0.0032 -0.151874,0.03577 -0.204788,0.09177 -0.02534,0.02545 -0.04444,0.05629 -0.06531,0.0853 -0.07057,0.120882 -0.100638,0.260091 -0.120904,0.397159 -0.03399,0.24354 -0.02884,0.49004 -0.03044,0.735296 10e-4,0.234337 0.01472,0.469445 -0.0096,0.703114 -10e-4,0.0099 -0.0031,0.02714 -0.0046,0.03985 -0.01898,0.160639 -0.120619,0.296109 -0.149506,0.454119 -0.0055,0.02991 -0.006,0.0604 -0.0049,0.09071 0.02348,0.01794 0.04802,0.04063 0.04905,0.0724 0.0028,0.05369 -0.03271,0.09937 -0.06628,0.137589 -0.04968,0.05957 -0.121525,0.09672 -0.196603,0.112878 -0.08421,0.01855 -0.170764,0.02137 -0.256459,0.02796 -0.106922,0.0062 -0.213175,-0.01168 -0.319911,-0.01315 -0.05831,-3.27e-4 -0.122068,0.01064 -0.163959,0.05487 -0.05083,0.05291 -0.07017,0.126388 -0.08749,0.195547 -0.0096,0.01478 -0.03008,0.01549 -0.04447,0.02374 -0.01993,0.0021 -0.01011,0.01391 -0.0024,0.02504 0.0476,0.0817 0.103096,0.159506 0.172329,0.224384 0.08001,0.0772 0.17378,0.137585 0.262542,0.20383 0.178968,0.137819 0.305725,0.328693 0.470549,0.481287 0.0675,0.06135 0.141729,0.115835 0.221965,0.159365 0.06118,0.03288 0.133495,0.05337 0.202471,0.0351 0.07857,-0.01872 0.139118,-0.07694 0.198759,-0.126267 0.06487,-0.05378 0.131794,-0.105271 0.202801,-0.150742 0.0075,-0.0048 0.01916,-0.01225 0.02753,-0.01729 0.01137,-0.0086 0.02955,-0.01928 0.04117,-0.005 0.009,0.01454 0.0044,0.03335 0.0094,0.04942 0.02035,0.1044 0.08347,0.193101 0.143275,0.278577 0.06963,0.09899 0.146532,0.198936 0.173483,0.319485 0.01343,0.07818 -0.0083,0.156809 -0.0049,0.235347 0.002,0.03826 0.0097,0.08411 0.04564,0.105195 0.04711,0.02206 0.100369,0.0089 0.150232,0.0088 0.0701,0.0011 0.143346,-0.01319 0.210599,0.01286 0.04616,0.01921 0.0799,0.05881 0.107264,0.09933 0.0035,0.0057 0.01248,0.0191 0.01789,0.02798 0.034,0.05338 0.06723,0.11524 0.129138,0.140177 0.03507,0.01372 0.07232,0.02125 0.109715,0.02499 -0.01852,0.01086 -0.01046,0.01178 0.0066,0.0093 0.09316,-0.0056 0.186525,-0.01015 0.278871,-0.02442 0.07548,-0.01061 0.151537,-0.02201 0.226325,-0.02787 0.07634,-0.0071 0.152306,-0.01424 0.227755,-0.01929 0.159283,-0.0098 0.323356,-0.01177 0.480465,0.02727 0.185305,0.04385 0.364107,0.115292 0.55343,0.141556 0.04641,0.0069 0.09542,0.0034 0.137207,-0.01954 0.07278,-0.03786 0.146712,-0.07369 0.223359,-0.103133 0.272969,-0.108519 0.564595,-0.162657 0.834414,-0.279733 0.09684,-0.04179 0.18893,-0.09411 0.274838,-0.155275 0.06106,-0.04043 0.122557,-0.08323 0.166187,-0.14319 0.07096,-0.08923 0.162645,-0.161896 0.22115,-0.260866 0.02813,-0.05418 0.02401,-0.117449 0.02529,-0.17667 -1.01e-4,-0.0825 0.0042,-0.171041 0.05218,-0.241549 0.05398,-0.07946 0.146419,-0.121736 0.236875,-0.144471 0.160035,-0.03917 0.32989,-0.02683 0.486097,-0.08338 0.114565,-0.0423 0.202458,-0.130503 0.294928,-0.206674 0.03254,-0.02755 0.07068,-0.05625 0.107626,-0.0817 0.04797,-0.03085 0.09943,-0.05738 0.15494,-0.07178 0.05617,-0.01702 0.118547,-0.02412 0.165743,-0.06187 0.03134,-0.0257 0.04433,-0.06621 0.04691,-0.105421 0.0057,-0.06614 -0.0015,-0.133529 0.01493,-0.198572 0.02317,-0.113917 0.08373,-0.215485 0.150911,-0.308694 0.06757,-0.094 0.14106,-0.184931 0.19132,-0.289948 0.08519,-0.17016 0.130506,-0.357482 0.220377,-0.525488 0.08262,-0.147897 0.214136,-0.260903 0.353435,-0.353764 0.106456,-0.0717 0.220017,-0.132264 0.324291,-0.207289 0.195018,-0.136682 0.375033,-0.291531 0.570406,-0.427332 0.100243,-0.06949 0.207739,-0.136242 0.319506,-0.189169 0.02936,-0.01365 0.05893,-0.02564 0.0878,-0.03654 0.175833,-0.06621 0.36414,-0.0955 0.535491,-0.174111 0.122785,-0.05714 0.23637,-0.134442 0.366043,-0.176244 0.07301,-0.0214 0.149167,-0.03056 0.22517,-0.03012 0.155136,-0.0056 0.298073,-0.07369 0.448605,-0.103749 0.165698,-0.03542 0.335897,-0.0157 0.503406,-0.009 0.114943,0.0052 0.232164,0.0055 0.343692,-0.02661 0.110924,-0.02995 0.21254,-0.08488 0.313562,-0.138161 0.109241,-0.05476 0.236492,-0.07758 0.35683,-0.05132 0.145431,0.03022 0.271277,0.116556 0.382713,0.211183 0.06127,0.05209 0.121661,0.110373 0.180145,0.168016 0.05977,0.06009 0.128843,0.119788 0.21502,0.134672 0.07195,0.01313 0.14325,-0.02015 0.196851,-0.06617 0.08669,-0.07375 0.148329,-0.171152 0.209507,-0.265845 0.03778,-0.05985 0.07853,-0.119781 0.0956,-0.189506 0.03076,-0.116314 0.0086,-0.236769 0.01401,-0.355021 3.48e-4,-0.0066 10e-4,-0.02185 0.0021,-0.0318 0.0035,-0.04411 0.01159,-0.08786 0.02454,-0.130189 -0.0055,-0.01064 0.01113,-0.02134 0.01482,-0.032 0.0435,-0.07652 0.118695,-0.127479 0.195169,-0.167069 0.08509,-0.04505 0.175863,-0.08036 0.254029,-0.137571 0.04866,-0.03338 0.10237,-0.06591 0.16333,-0.06632 0.04005,-0.0029 0.08501,0.0024 0.124161,-0.01437 0.03847,-0.01871 0.06712,-0.05692 0.06961,-0.10023 0.0046,-0.05312 -0.01158,-0.104844 -0.0208,-0.156592 -0.0013,-0.0082 -0.0045,-0.02412 -0.0057,-0.03541 -0.01078,-0.07087 0.0024,-0.150671 0.05539,-0.20256 0.05902,-0.05819 0.143086,-0.07868 0.222183,-0.09279 0.01737,-0.0029 0.0354,-0.0053 0.05469,-0.008 0.07795,-0.0113 0.157331,-0.01734 0.235682,-0.0062 0.121983,0.01569 0.242215,0.05994 0.339353,0.13639 0.02797,0.02311 0.05041,0.05213 0.0808,0.07236 0.02321,0.01809 0.04642,0.03618 0.06963,0.05427 -0.0125,-0.04331 -0.02206,-0.08765 -0.0364,-0.130314 -0.04203,-0.09837 -0.102455,-0.190591 -0.120888,-0.297635 -0.0076,-0.04398 -0.01695,-0.09459 0.0098,-0.1341 0.02687,-0.03576 0.0758,-0.03645 0.116432,-0.03896 0.0581,-0.0037 0.12038,-0.0057 0.171073,-0.03772 0.07035,-0.04913 0.111252,-0.130003 0.133631,-0.210907 0.01817,-0.07126 0.0243,-0.151372 -0.01025,-0.21877 -0.01998,-0.03927 -0.05946,-0.06593 -0.102502,-0.07337 -0.01995,-0.0066 -0.01632,-0.03254 -0.01931,-0.04916 -0.0046,-0.08961 0.04427,-0.171377 0.101302,-0.23659 0.09099,-0.10291 0.205505,-0.181511 0.321625,-0.253335 0.145934,-0.08837 0.299159,-0.164361 0.455542,-0.232344 0.167447,-0.07134 0.340647,-0.128983 0.517128,-0.173436 0.02925,-0.0072 0.06309,-0.01531 0.09424,-0.02223 0.177177,-0.03857 0.357566,-0.06559 0.539057,-0.06974 0.101056,-0.001 0.204805,0.0058 0.303255,0.01977 0.047,0.0067 0.09739,0.01624 0.141313,0.02648 0.0224,0.0054 0.04308,0.01072 0.06374,0.01673 0.03084,0.0086 0.06566,0.02051 0.09277,0.03068 0.09336,0.03476 0.180739,0.08627 0.253265,0.154883 0.0095,0.0088 0.01812,0.01701 0.0251,0.02431 0.144025,0.144776 0.230674,0.332402 0.33629,0.504392 0.09123,0.149225 0.189053,0.29535 0.304334,0.427234 0.0529,0.05615 0.113091,0.11089 0.139072,0.185669 0.0104,0.03292 -0.0014,0.06871 0.0097,0.101174 0.01174,0.02234 0.03855,0.03587 0.06342,0.03573 0.03779,-0.004 0.0629,-0.03739 0.08462,-0.06524 0.04053,-0.05359 0.06993,-0.118585 0.128451,-0.155851 0.07925,-0.05772 0.179399,-0.07737 0.275858,-0.07639 0.109438,-4.1e-5 0.22112,0.0098 0.328022,-0.0197 0.150124,-0.03981 0.279209,-0.130118 0.407998,-0.213239 0.07546,-0.04858 0.150426,-0.09894 0.231884,-0.137046 0.07274,-0.0328 0.155288,-0.04043 0.233343,-0.02514 0.108201,0.01944 0.209205,0.06648 0.317771,0.08459 0.196971,0.03573 0.398262,0.01558 0.596749,0.0342 0.02275,0.002 0.04975,0.0051 0.06956,0.0079 0.05942,0.0092 0.119496,0.01927 0.175819,0.04084 0.06827,0.03121 0.117991,0.09191 0.189561,0.117475 0.0187,0.0064 0.03857,0.0031 0.05791,0.0039 0.0014,-0.01551 0.01929,-0.01723 0.02916,-0.02641 0.05115,-0.03607 0.09729,-0.079 0.140672,-0.123971 0.05229,-0.06096 0.08625,-0.140531 0.158012,-0.182517 0.09436,-0.06001 0.20938,-0.07102 0.318601,-0.07188 0.09832,-0.0018 0.196427,0.0024 0.293828,0.0086 0.141272,0.0074 0.28654,0.0163 0.42396,-0.02439 0.0783,-0.0239 0.151241,-0.06817 0.206135,-0.129179 0.06229,-0.07098 0.09161,-0.162833 0.121501,-0.250619 0.02278,-0.07246 0.01737,-0.150771 -0.0044,-0.222748 -0.02464,-0.08367 -0.05427,-0.166097 -0.06999,-0.252137 -0.02801,-0.124228 -0.08404,-0.239361 -0.138718,-0.353542 -0.06815,-0.152224 -0.10295,-0.316208 -0.142655,-0.477394 -0.02222,-0.101451 -0.01416,-0.209079 0.02321,-0.306002 0.03687,-0.105628 0.101043,-0.198386 0.155804,-0.295043 0.03926,-0.08168 0.03557,-0.174723 0.03988,-0.263055 0.0035,-0.08245 0.01234,-0.171539 0.0661,-0.238159 0.04811,-0.06181 0.126159,-0.08543 0.197669,-0.10823 0.05916,-0.01965 0.122658,-0.03515 0.171711,-0.07566 0.03583,-0.02844 0.05324,-0.07814 0.03967,-0.12234 -0.02093,-0.08545 -0.07844,-0.161346 -0.07766,-0.251914 0.0015,-0.06798 0.0595,-0.129224 0.127651,-0.133276 0.05552,-0.0056 0.110983,0.006 0.164742,0.01882 0.02251,0.0056 0.0498,0.01358 0.07396,0.0208 0.09584,0.02832 0.188823,0.06645 0.286454,0.08846 0.06183,0.01026 0.124638,-0.0018 0.185682,-0.01198 0.110752,-0.02203 0.222073,-0.05187 0.320581,-0.108628 0.03195,-0.01743 0.05776,-0.04456 0.07327,-0.07751 0.04633,-0.08955 0.0721,-0.187647 0.102682,-0.283229 -0.08658,-0.0326 -0.17537,-0.06248 -0.254363,-0.111539 -0.03989,-0.02471 -0.07245,-0.06241 -0.08434,-0.108489 -0.02244,-0.08369 -0.0043,-0.170718 0.005,-0.254956 -0.0038,-0.0091 -0.02181,-0.0098 -0.03119,-0.01553 -0.07542,-0.03255 -0.158276,-0.04578 -0.240144,-0.04119 -0.09758,0.0032 -0.193697,0.02561 -0.291479,0.02474 -0.08527,-10e-4 -0.16477,-0.0455 -0.221004,-0.107801 -0.06798,-0.07126 -0.139174,-0.146606 -0.233835,-0.181181 -0.0612,-0.02343 -0.129322,-0.01632 -0.190014,0.0049 -0.04966,0.01643 -0.09296,0.0405 -0.142759,0.05606 -0.05508,0.01855 -0.116542,0.01257 -0.168046,-0.01383 -0.09006,-0.04808 -0.170638,-0.112493 -0.262779,-0.156966 -0.110141,-0.05458 -0.236057,-0.07663 -0.358159,-0.0619 -0.0722,0.0079 -0.146406,0.02395 -0.216149,0.03452 -0.06576,0.01108 -0.132402,0.01396 -0.19894,0.01559 -0.278156,0.01301 -0.547289,0.08965 -0.819197,0.142393 -0.05717,0.0112 -0.117814,0.02177 -0.176756,0.03037 -0.02328,0.0032 -0.05183,0.0071 -0.07721,0.0099 -0.11022,0.01286 -0.22223,0.01676 -0.332209,0.011 -0.04348,3.19e-4 -0.08963,-0.0049 -0.130393,0.01347 -0.03493,0.02231 -0.04607,0.06531 -0.06443,0.100072 -0.03149,0.07329 -0.06945,0.143654 -0.113158,0.210386 -0.0455,0.07306 -0.09667,0.143272 -0.132428,0.221864 -0.04445,0.104248 -0.01052,0.223784 -0.05659,0.32765 -0.0356,0.08267 -0.11723,0.134385 -0.200175,0.160898 -0.108853,0.03441 -0.228046,0.03896 -0.33812,0.0072 -0.2167,-0.05675 -0.415093,-0.168744 -0.593982,-0.301524 -0.200786,-0.150628 -0.380265,-0.330204 -0.528655,-0.532756 -0.01097,-0.01322 -2.45e-4,-0.03163 0.01464,-0.03564 0.05555,-0.02718 0.121319,-0.03117 0.172346,-0.06783 0.01452,-0.01039 0.02325,-0.02809 0.01837,-0.04581 -0.0093,-0.03628 -0.04632,-0.05548 -0.07756,-0.07076 -0.05936,-0.02609 -0.12328,-0.04122 -0.187422,-0.04959 -0.07969,-0.0092 -0.167312,0.0076 -0.225877,0.06587 -0.0593,0.05858 -0.08362,0.14389 -0.08724,0.225228 -0.0015,0.06523 0.0143,0.134041 -0.01274,0.196076 -0.03639,0.07482 -0.108351,0.121689 -0.16966,0.174274 -0.04868,0.04074 -0.09088,0.09014 -0.120988,0.146137 -0.03296,0.06209 -0.03156,0.134706 -0.03777,0.201789 -0.0021,0.02389 -0.0053,0.04891 -0.0089,0.07029 -0.01152,0.06752 -0.02861,0.13781 -0.07565,0.190135 -0.04955,0.05856 -0.125246,0.08173 -0.189262,0.11988 -0.105284,0.05962 -0.172746,0.163778 -0.260348,0.244081 -0.05706,0.0539 -0.126892,0.09312 -0.201693,0.116463 -0.02647,0.0088 -0.05354,0.01666 -0.07868,0.023 -0.02222,0.0055 -0.04287,0.01033 -0.06381,0.01461 -0.03157,0.0063 -0.0686,0.01308 -0.102563,0.0182 -0.129248,0.02084 -0.260362,0.02999 -0.388516,0.05737 -0.149387,0.03855 -0.268958,0.144186 -0.413004,0.195847 -0.09663,0.0357 -0.201369,0.03827 -0.303205,0.03701 -0.08841,-0.0029 -0.179344,-0.0075 -0.26235,-0.04088 -0.08998,-0.04045 -0.151948,-0.121985 -0.201306,-0.204452 -0.05629,-0.09248 -0.101493,-0.193179 -0.175691,-0.273443 -0.230095,-0.268828 -0.468488,-0.53237 -0.736505,-0.764203 -0.110051,-0.09532 -0.228124,-0.180836 -0.338636,-0.275629 -0.160944,-0.135445 -0.316856,-0.2807 -0.456692,-0.436219 -0.09824,-0.109727 -0.191113,-0.22506 -0.266528,-0.351895 -0.1296,-0.212707 -0.226239,-0.444585 -0.368948,-0.649407 -0.04619,-0.06767 -0.09995,-0.129857 -0.158766,-0.186801 -0.103572,-0.09995 -0.195301,-0.21143 -0.280858,-0.326974 -0.179503,-0.244448 -0.320927,-0.515397 -0.431669,-0.797314 -0.07505,-0.187646 -0.143701,-0.382622 -0.233864,-0.565705 -0.02361,-0.05225 -0.05804,-0.09886 -0.09924,-0.138584 -0.100349,-0.0992 -0.197641,-0.202237 -0.283468,-0.314464 -0.05859,-0.07055 -0.0822,-0.16255 -0.139535,-0.233821 -0.02937,-0.03632 -0.07399,-0.05532 -0.118071,-0.06693 -0.01618,-0.01136 -0.01437,0.0092 -0.01809,0.02004 -0.02021,0.06425 -0.0058,0.132816 0.01314,0.195526 0.06579,0.214282 0.185123,0.405991 0.293894,0.600236 0.181247,0.322395 0.339851,0.660139 0.556684,0.961881 0.182784,0.248058 0.368585,0.494077 0.564768,0.731737 0.105798,0.129978 0.219622,0.253133 0.325829,0.382764 0.09558,0.11778 0.182467,0.245025 0.236438,0.387668 0.07358,0.18081 0.179675,0.346046 0.294564,0.50307 0.08455,0.114452 0.16835,0.229522 0.254276,0.342955 0.17047,0.2226 0.36233,0.428113 0.566009,0.620565 0.166387,0.158134 0.341592,0.306692 0.507373,0.465494 0.214405,0.20302 0.421596,0.413208 0.624694,0.628023 0.02453,0.02844 0.05535,0.06026 0.0527,0.100686 -0.0052,0.03628 -0.04461,0.05069 -0.07625,0.05599 -0.03612,0.005 -0.07265,0.01174 -0.109144,0.007 -0.0563,-0.0036 -0.113234,-0.02727 -0.169333,-0.009 -0.07312,0.02126 -0.135742,0.07345 -0.213529,0.07964 -0.03692,0.0055 -0.07125,-0.01097 -0.105131,-0.02265 -0.0348,-0.01058 -0.0711,0.0093 -0.09125,0.03746 -0.04047,0.04995 -0.06261,0.117243 -0.120495,0.151121 -0.03198,0.01593 -0.06848,0.02163 -0.103914,0.02313 -0.03595,0.0014 -0.07608,-0.01641 -0.08699,-0.05317 -0.01497,-0.05063 0.0032,-0.1034 0.01993,-0.151247 0.02924,-0.0774 0.068,-0.150686 0.103141,-0.225479 -0.348987,-0.171781 -0.696842,-0.348461 -1.037184,-0.535491 -0.114836,-0.06261 -0.228006,-0.12818 -0.341985,-0.192299 -0.101373,-0.05458 -0.20783,-0.107515 -0.323818,-0.120013 -0.05834,-0.0065 -0.116497,0.0041 -0.174232,0.01125 -0.0084,0.0045 -0.02453,0.004 -0.0359,0.0065 -0.06521,0.01078 -0.132863,0.0051 -0.194867,-0.01804 -0.07603,-0.02509 -0.141337,-0.07235 -0.206935,-0.116724 -0.06314,-0.04344 -0.134133,-0.0781 -0.210994,-0.08727 -0.115882,-0.01567 -0.231532,0.01028 -0.347048,0.01702 -0.0087,3.23e-4 -0.0219,0.0013 -0.03176,0.0016 -0.0565,0.002 -0.113244,-8.09e-4 -0.169397,-0.0071 -0.03753,-0.004 -0.07111,-0.02819 -0.08696,-0.06239 -0.02167,-0.03889 -0.02763,-0.08355 -0.02961,-0.127345 -0.0042,-0.09832 -0.0032,-0.19764 0.01365,-0.294832 0.0044,-0.03023 0.01948,-0.0589 0.04544,-0.07595 0.05824,-0.04184 0.128843,-0.05873 0.189285,-0.09634 0.04682,-0.03031 0.09203,-0.06708 0.116538,-0.118486 0.02298,-0.04477 0.0415,-0.09189 0.0516,-0.141294 0.01469,-0.06503 0.06592,-0.114073 0.11943,-0.149843 0.05713,-0.03776 0.125948,-0.04875 0.192457,-0.05762 0.05567,-0.0091 0.115695,-0.01812 0.16044,-0.05538 0.05407,-0.0485 0.06868,-0.125241 0.06924,-0.194788 0,-0.05881 -0.0099,-0.117845 -0.03412,-0.171711 -0.03068,-0.07305 -0.0659,-0.144926 -0.08249,-0.222926 -0.03341,-0.131513 -0.05074,-0.267808 -0.100986,-0.39456 -0.03814,-0.08554 -0.117174,-0.140813 -0.184671,-0.201617 -0.02115,-0.01927 -0.04223,-0.03861 -0.06336,-0.05789 -0.001,-0.01435 -0.01579,-0.02414 -0.02206,-0.03698 -0.04106,-0.05821 -0.05348,-0.133041 -0.03987,-0.20235 0.01644,-0.09647 0.06927,-0.184305 0.07409,-0.28308 2.05e-4,-0.01166 0,-0.02334 0,-0.03499 -0.06912,-0.02805 -0.134279,-0.06549 -0.19255,-0.112138 -0.08424,-0.06468 -0.155581,-0.144758 -0.242186,-0.20643 -0.06787,-0.04874 -0.151579,-0.06437 -0.228546,-0.09277 -0.01636,-0.01113 -0.0078,-0.03421 -0.01103,-0.0507 -0.0038,-0.07325 -0.0046,-0.148459 -0.0285,-0.218564 -0.01067,-0.02419 -0.03233,-0.04117 -0.05236,-0.05848 -0.04942,0.01249 -0.09601,0.03421 -0.14612,0.04441 -0.136761,0.03344 -0.278809,0.05735 -0.419799,0.04148 -0.04581,-0.006 -0.09192,-0.01599 -0.133643,-0.03625 -0.01437,-0.0102 -0.0078,-0.03017 0.0044,-0.03911 0.05926,-0.06204 0.137281,-0.105917 0.18587,-0.178071 0.01804,-0.02547 0.02519,-0.06257 0.0041,-0.08848 -0.02223,-0.03454 -0.06701,-0.04096 -0.104679,-0.04411 -0.110564,-0.0048 -0.218677,0.02558 -0.328768,0.0301 -0.01664,0.0031 -0.04358,-5.99e-4 -0.04464,-0.02203 0.0075,-0.09172 0.06208,-0.169454 0.113284,-0.242487 0.04804,-0.06832 0.09778,-0.138618 0.11751,-0.221166 3.21e-4,-0.0097 0.01388,-0.0292 0.0055,-0.03247 -0.10277,-0.0018 -0.209233,-0.0032 -0.306156,0.03615 -0.129465,0.04977 -0.213001,0.174188 -0.343792,0.221544 -0.08452,0.02678 -0.171518,0.04516 -0.258373,0.06263 -0.07856,0.01518 -0.160843,0.02786 -0.238281,0.0374 -0.0478,0.0057 -0.0993,0.0108 -0.145032,0.01433 -0.03615,0.0026 -0.07441,0.0049 -0.108361,0.0062 -0.01682,-0.0015 -0.04145,0.0084 -0.05103,-0.01097 -0.0096,-0.04749 0.01088,-0.09597 0.03744,-0.134618 0.06128,-0.08466 0.147466,-0.146362 0.23026,-0.208279 0.06194,-0.04683 0.128277,-0.08969 0.179123,-0.149253 0.114515,-0.120083 0.252518,-0.218994 0.347165,-0.357134 0.0278,-0.03939 0.04605,-0.08416 0.06629,-0.127623 -0.05864,-0.0052 -0.119041,-0.0074 -0.173714,-0.03171 -0.031,-0.01099 -0.06538,-0.02802 -0.07442,-0.06266 -0.01267,-0.04049 -0.02342,-0.08177 -0.04186,-0.120214 -0.01663,-0.03548 -0.03691,-0.07806 -0.07904,-0.08712 -0.05312,-0.0086 -0.107039,8.08e-4 -0.160496,-8.2e-5 -0.130078,-9.55e-4 -0.259759,0.01833 -0.389834,0.01155 -0.02078,-0.0054 -0.01701,-0.03135 -0.02196,-0.04756 -0.0191,-0.110552 -0.0257,-0.226756 0.0064,-0.33557 0.01815,-0.06108 0.0544,-0.119096 0.110662,-0.151521 0.0809,-0.04847 0.177321,-0.05873 0.269407,-0.06687 0.05897,-0.004 0.117954,-0.0079 0.17678,-0.01336 0.08342,-2.69e-4 0.161714,0.03873 0.245154,0.03712 0.03903,-2.37e-4 0.0746,-0.02518 0.09079,-0.06025 0.01621,-0.03239 0.03009,-0.07171 0.01281,-0.106617 -0.02755,-0.059482 -0.08487,-0.098061 -0.141105,-0.1276582 -0.0542,-0.028856 -0.118465,-0.045128 -0.178954,-0.027665 -0.08776,0.024519 -0.156862,0.087293 -0.23387,0.1328482 -0.01252,0.0076 -0.02408,0.01416 -0.03525,0.01995 -0.06677,0.03352 -0.138439,0.05578 -0.208114,0.08233 -0.12124,0.04328 -0.243167,0.0922 -0.344505,0.173543 -0.14062,0.116138 -0.269663,0.245722 -0.392509,0.380345 -0.109315,0.119717 -0.21164,0.245614 -0.309757,0.374611 -0.0058,0.0097 -0.01918,0.01969 -0.0204,0.02918 0.0095,0.01349 0.02888,0.02256 0.02972,0.04047 -2.13e-4,0.01796 -0.02032,0.02196 -0.0346,0.02104 -0.105464,0.01228 -0.202711,0.05817 -0.300947,0.09551 -0.10801,0.04198 -0.222812,0.08271 -0.340548,0.06885 -0.03886,-0.0056 -0.07906,-0.01422 -0.112423,-0.03581 -0.05135,-0.04274 -0.09461,-0.09453 -0.134276,-0.148055 -0.01743,-0.02297 -0.03174,-0.04885 -0.03466,-0.07804 -0.0071,-0.03414 -0.0055,-0.07724 0.02671,-0.09846 0.03922,-0.02422 0.0875,-0.02225 0.131653,-0.02905 0.07142,-0.0087 0.142614,0.01521 0.213861,0.0052 0.05639,-0.0086 0.09526,-0.05484 0.130068,-0.09587 0.04502,-0.05609 0.0879,-0.114021 0.137574,-0.166218 0.06371,-0.06963 0.139633,-0.13541 0.234037,-0.156837 0.03055,-0.0075 0.06208,-0.0086 0.09319,-0.0122 -0.0065,-0.04445 -0.01761,-0.08808 -0.02432,-0.132433 -0.0054,-0.03243 0.01788,-0.06032 0.03873,-0.08224 0.04932,-0.04558 0.11258,-0.07178 0.173423,-0.09815 0.104382,-0.0418 0.207802,-0.09555 0.295983,-0.167511 0.08986,-0.073337 0.164026,-0.1727884 0.185849,-0.2885945 0.01463,-0.091241 -0.02151,-0.1806545 -0.06235,-0.2603142 -0.04762,-0.090148 -0.104974,-0.1748473 -0.164363,-0.2576064 -0.09359,-0.1197016 -0.211027,-0.2212292 -0.344555,-0.294022 -0.01436,-0.00829 -0.02871,-0.016586 -0.04307,-0.02488 0.0038,0.072147 0.0082,0.1445441 0.02374,0.2153156 0.0295,0.1508245 0.08085,0.2979997 0.09039,0.452255 0.0014,0.039101 5.56e-4,0.086991 -0.03427,0.112426 -0.0356,0.023843 -0.08085,0.02141 -0.120154,0.035794 -0.03228,0.00967 -0.06316,0.025357 -0.08591,0.050751 -0.06802,0.068045 -0.125132,0.1458574 -0.185642,0.2204053 -0.09012,0.1116332 -0.177533,0.2265352 -0.282324,0.3250942 -0.04231,0.03674 -0.08673,0.07766 -0.143591,0.0886 -0.03868,0.0082 -0.083,-0.0173 -0.088,-0.05814 -0.0085,-0.05938 0.01751,-0.116063 0.03205,-0.17239 0.01965,-0.07665 0.0016,-0.155502 -0.0084,-0.2321338 -0.0067,-0.049817 -0.0084,-0.1013417 0.0071,-0.149797 0.02064,-0.075958 0.05766,-0.1482123 0.06415,-0.2275243 0.0022,-0.028752 -0.0079,-0.061496 -0.03628,-0.073877 -0.04799,-0.021484 -0.10579,-0.021469 -0.153993,-4.27e-4 -0.0654,0.031472 -0.102243,0.098466 -0.131952,0.161417 -0.01984,0.04429 -0.03804,0.090851 -0.07309,0.1258092 -0.102577,0.1089569 -0.284405,0.1319626 -0.409566,0.048818 -0.05035,-0.032332 -0.09125,-0.07996 -0.110801,-0.1369457 -0.0179,-0.047958 -0.02537,-0.099161 -0.02775,-0.1501042 -1.64e-4,-0.00698 -6.85e-4,-0.022711 2.03e-4,-0.033133 -0.0024,-0.015435 0.01081,-0.0279 0.02577,-0.0269 0.07796,-0.018389 0.151481,-0.051765 0.223729,-0.08568 0.08383,-0.041137 0.167558,-0.08511 0.239837,-0.1448314 0.01998,-0.01714 0.03809,-0.036345 0.05724,-0.054396 -0.06896,-0.053529 -0.137154,-0.1099072 -0.190529,-0.1795277 -0.02436,-0.036058 -0.02888,-0.084669 -0.06281,-0.1142163 -0.01202,-0.00641 -0.02434,-0.012239 -0.03664,-0.018117 -0.02172,0.018228 -0.05124,0.026992 -0.07895,0.018724 -0.04315,-0.00999 -0.09208,-0.00676 -0.129113,-0.034417 -0.03367,-0.026762 -0.03149,-0.074819 -0.02368,-0.1128968 0.0088,-0.045721 0.027,-0.096492 0.07232,-0.1173979 0.03007,-0.013299 0.06229,-0.020994 0.09334,-0.031716 -0.02841,-0.047968 -0.05474,-0.093245 -0.08209,-0.1416136 -0.04864,-0.082814 -0.09737,-0.167817 -0.167006,-0.2350889 -0.03482,-0.032682 -0.08222,-0.064162 -0.132199,-0.051514 -0.02206,0.00528 -0.04018,0.019468 -0.05887,0.031519 0.0013,0.014933 -0.01194,0.026154 -0.01538,0.040334 -0.03348,0.08852 -0.04589,0.1831285 -0.0596,0.2762563 -0.01196,0.083054 -0.01847,0.166863 -0.03186,0.2496964 -0.0048,0.016484 -0.02476,0.016536 -0.03764,0.010358 -0.07844,-0.020083 -0.162514,-0.014158 -0.238266,-0.045075 -0.08156,-0.033328 -0.137927,-0.1165053 -0.142479,-0.2040134 -0.0086,-0.1026442 0.02345,-0.2041984 0.01221,-0.3067497 -0.0028,-0.03355 -0.01854,-0.06372 -0.0308,-0.094486 -0.07124,0.036815 -0.150491,0.065653 -0.205349,0.1267531 -0.0222,0.027992 -0.04117,0.060688 -0.04704,0.096315 -0.0018,0.032186 0.0255,0.055231 0.03929,0.081915 0.0335,0.052089 0.04061,0.1151325 0.04195,0.1756453 0.0011,0.084747 -0.0031,0.1712991 -0.02939,0.2524712 -0.0096,0.028176 -0.02714,0.063472 -0.06127,0.064417 -0.03545,-0.00213 -0.0548,-0.037427 -0.07007,-0.065117 -0.04264,-0.080933 -0.05706,-0.1729432 -0.06033,-0.2634137 -0.0057,-0.1010964 -9.55e-4,-0.20683 -0.04268,-0.3015147 -0.02759,-0.064771 -0.08032,-0.114836 -0.139483,-0.1509771 -0.124713,-0.078303 -0.263034,-0.1319628 -0.402237,-0.1783867 -0.107691,-0.035919 -0.218307,-0.061681 -0.32839,-0.088975 0.08167,0.1028845 0.156988,0.2122571 0.254268,0.3014541 0.02924,0.027718 0.06367,0.050026 0.102632,0.061246 0.06128,0.020421 0.131241,0.031776 0.176169,0.082689 0.09105,0.096663 0.140647,0.2242738 0.171697,0.3514681 0.03274,0.1404995 0.04549,0.2860672 0.03501,0.4300349 -0.0045,0.048685 -0.0098,0.097896 -0.02338,0.1449122 -0.01014,0.015515 -0.03226,0.010892 -0.04813,0.013053 -0.09181,0.00103 -0.174175,-0.055006 -0.230408,-0.123885 -0.04579,-0.05652 -0.08134,-0.1272168 -0.07454,-0.2018406 0.0035,-0.070688 0.0341,-0.1361327 0.0432,-0.2057819 0.0062,-0.050454 -0.0085,-0.1021633 -0.03928,-0.1424902 -0.0657,-0.087949 -0.15201,-0.157256 -0.233692,-0.2295808 C 20.436601,8.2857184 20.366607,8.2185592 20.292269,8.156275 20.192449,8.070959 20.093028,7.9847023 20.003925,7.8880006 19.964365,7.8467606 19.923115,7.8068126 19.88248,7.767035 19.86476,7.753723 19.84622,7.734601 19.82761,7.719696 19.704415,7.6131132 19.561925,7.5262397 19.404777,7.4805299 c -0.07415,-0.020959 -0.14994,-0.037156 -0.226592,-0.045407 -0.04816,-0.0037 -0.101135,-0.00524 -0.143512,0.021446 -0.04325,0.027361 -0.05239,0.090182 -0.02777,0.1330701 0.03141,0.057089 0.08767,0.096223 0.145646,0.1231179 0.03379,0.015035 0.06983,0.026342 0.106994,0.027599 0.0172,0.00398 0.01896,0.026248 0.0084,0.037889 -0.04941,0.082024 -0.121295,0.1489052 -0.164687,0.2348559 -0.01123,0.021101 -0.01631,0.048282 -6.41e-4,0.068675 0.03019,0.039155 0.08009,0.053543 0.121694,0.076949 0.04227,0.021366 0.08463,0.05094 0.101203,0.097457 0.02595,0.057486 0.03268,0.1314473 -0.0081,0.1839745 -0.03727,0.047001 -0.103418,0.063045 -0.160581,0.052592 -0.03981,-0.00758 -0.06935,-0.041227 -0.07975,-0.079274 -0.02428,-0.08615 -0.0089,-0.1776426 -0.03003,-0.2644021 -0.01585,-0.098996 -0.02177,-0.2030569 -0.06699,-0.2947305 -0.01596,-0.030493 -0.04364,-0.062349 -0.08136,-0.059789 -0.0224,8.159e-4 -0.04555,0.010508 -0.05532,0.031878 -0.0214,0.042103 -0.01704,0.091429 -0.01572,0.1371924 0.0024,0.059009 0.0128,0.1186919 0.0029,0.1774703 -0.01385,0.060046 -0.06397,0.1177997 -0.12888,0.1197555 -0.06439,0.0014 -0.117021,-0.045498 -0.152746,-0.094606 -0.03457,-0.045213 -0.04325,-0.1053964 -0.03208,-0.1602787 0.01577,-0.095008 0.07232,-0.1774031 0.08935,-0.2719687 0.0062,-0.03405 -2.85e-4,-0.073353 -0.02915,-0.095626 -0.04554,-0.035712 -0.103406,-0.048859 -0.156001,-0.070646 -0.08462,-0.032588 -0.168047,-0.082003 -0.217451,-0.1603264 -0.02944,-0.044969 -0.03277,-0.1041318 -0.01002,-0.1526303 0.04461,-0.098777 0.137916,-0.1652317 0.183598,-0.2634918 0.03061,-0.060067 0.02372,-0.1378143 -0.02007,-0.1896175 -0.03933,-0.043348 -0.100908,-0.051389 -0.155418,-0.061621 -0.03739,-0.00494 -0.0772,-0.015784 -0.113973,-0.00254 -0.03246,0.017807 -0.04385,0.056145 -0.06124,0.086435 -0.04738,0.090839 -0.08085,0.191254 -0.150192,0.2687454 -0.03385,0.036874 -0.08338,0.065232 -0.134946,0.056691 -0.07483,-0.00909 -0.145949,-0.036512 -0.215583,-0.06415 -0.06119,-0.028311 -0.124772,-0.055465 -0.176148,-0.1001181 -0.04164,-0.039085 -0.04376,-0.099844 -0.05093,-0.1527259 -0.0034,-0.037858 -0.01336,-0.074718 -0.02984,-0.1089816 -0.06078,-0.1373712 -0.146795,-0.2616397 -0.234448,-0.3829728 -0.0621,-0.086122 -0.150796,-0.1496486 -0.246969,-0.1927876 -0.09871,-0.045382 -0.203326,-0.074707 -0.303723,-0.1152117 -0.02759,-0.012943 -0.05232,-0.031015 -0.07843,-0.046581 l -0.01607,0.050077 z m -1.573194,12.2578094 -0.0414,0.04672 c -0.01052,-0.02324 -0.02104,-0.04648 -0.03156,-0.06972 0.02432,0.0076 0.04864,0.01534 0.07296,0.023 z" />

</svg>
