<svg xmlns="http://www.w3.org/2000/svg" viewBox="0 145 74 57" version="1.1" id="svg8" shapeRendering="crispEdges">
   <defs id="defs2" />
   <g transform="translate(66.673675,2.2810853)" id="layer1">
      <g transform="matrix(0.26458333,0,0,0.26458333,-66.72662,-2.3474476)" id="g184">

         <g id='MOSCOW' className={getClassName('MOSCOW')} {...selectHandler}>
            <path
               d="m 111.44011,599.52082 c 1.26524,-1.38427 1.80862,-3.61048 2.34231,-5.11719 -0.96385,-2.17447 2.4007,-1.40642 3.15324,-0.36665 2.65081,0.54066 4.47525,-2.53925 6.97036,-2.50091 3.17372,1.55602 0.24248,-4.1956 3.73673,-2.70566 1.32263,-1.3586 2.71378,-3.35161 4.34283,-0.97165 0.45697,1.83039 3.31368,0.33919 2.64457,2.81296 -0.35109,2.29802 0.67812,4.18205 1.18862,6.39861 0.24841,2.76996 3.47948,2.00858 4.6531,3.52001 1.32834,1.0838 2.43964,1.3063 4.06828,0.43071 2.33346,0.21217 2.47556,3.75661 3.22849,5.47942 0.25089,2.14893 -2.38268,2.2886 -3.13453,3.07581 1.90726,2.23176 -2.74238,1.39058 -2.65494,3.78363 -0.41271,2.22276 -2.35635,2.85966 -4.1106,3.27107 -0.21026,1.66129 1.87663,2.55524 -0.55026,3.14008 -1.68452,2.39139 -3.21234,-2.36263 -2.04281,-3.57771 -1.66289,-0.49954 -3.10545,-1.06662 -3.6668,-2.7613 -1.54062,-0.11751 -1.9166,2.91269 -3.35096,0.57319 -1.31773,-0.81756 -2.28344,-0.70776 -2.4258,-2.58027 -1.20971,-2.04414 0.84925,-3.0805 2.06918,-3.56827 0.31727,-0.69619 -0.71786,-3.02758 0.85911,-2.10621 0.36003,-2.18571 4.4413,-3.06355 1.62854,-5.30859 -0.86487,-1.72467 -2.49315,0.56025 -2.79488,-1.05784 -0.43233,1.68576 0.99714,3.88157 -1.49008,4.3173 -0.98217,0.64688 0.42332,2.95598 -1.57034,1.58954 -3.01686,-0.77298 2.54618,3.98906 -1.29335,3.38012 -1.3311,-1.20171 -2.3404,-1.29769 -3.54841,0.21913 -1.93988,1.31702 -4.0075,-2.38519 -5.95411,-0.0976 -2.85994,-1.58478 0.50088,-5.01009 -1.25541,-7.17864 -0.27525,-0.73079 -0.6287,-1.43112 -1.04208,-2.0931 z m 14.9,-0.06 c -1.62811,-0.81714 1.11298,-1.36751 0,0 z m 1.54,-0.57 c 0.48341,0.56216 -1.06882,0.28158 0,0 z m -3.13,3.12 c 1.65027,0.31633 0.10091,0.6864 -0.41071,0.0871 z m 6.21,-0.86 c 0.50764,-0.3091 0.31715,0.24762 0,0 z m -6.31,7.73 0.01,-0.02 z m 0.73,0.77 -0.14,0.05 z"
               id="RU-MOS" />
            <path
               d="m 124.76011,602.00082 -0.01,0.01 v 0 l 0.44,0.4 0.55,-0.18 -0.17,-0.14 0.19,0.29 -0.86,0.21 -0.31,-0.28 0.31,-0.16 -0.42,0.11 -0.03,-0.29 -0.4,0.29 0.71,-0.3 v 0 z m 6.28,-0.9 0.3,0.01 v 0 l -0.31,0.13 v 0 z m -6.49,7.47 0.03,-0.39 0.52,-0.26 -1.22,-1.17 -0.39,-0.75 0.08,-0.86 0.86,-0.12 0.28,0.75 0.62,-0.1 0.64,0.3 -0.41,-0.33 0.34,-0.12 -0.32,-1.6 0.95,-0.25 0.66,-0.56 h 0.69 l -0.1,-0.43 -0.51,0.22 0.24,-0.35 0.2,0.13 -0.16,-1.15 -0.36,0.28 -0.09,-0.39 0.42,0.09 0.19,-0.51 -0.29,0.11 -0.15,-0.32 0.57,-0.33 -0.53,-1.06 0.6,0.04 -0.22,0.49 0.27,0.45 0.78,-0.4 -0.12,-0.44 0.4,-0.17 -0.12,0.58 0.96,0.16 1.05,0.9 0.04,1.01 0.92,0.47 -0.03,0.5 -0.35,-0.04 -0.1,-0.4 -0.3,0.09 -0.95,1.41 -0.97,0.21 -0.14,0.66 0.23,0.4 -0.48,0.22 -0.06,0.45 -0.65,-0.57 -0.37,0.17 -0.15,0.3 0.69,0.69 -0.47,0.67 0.16,0.27 -0.32,-0.02 0.17,0.83 -0.63,0.38 -0.32,-0.47 -0.01,0.23 -0.4,-0.15 -0.36,0.27 0.06,0.83 -0.43,0.22 v 0 l -0.33,0.04 v 0 l -0.14,0.05 v 0 l -0.6,-0.81 v 0 l 0.01,-0.01 v 0 l 0.01,-0.02 v 0 l -0.03,-0.05 v 0 l -0.02,-0.02 v 0 h -0.01 v 0 l -0.08,-0.18 v 0 z m 3.44,-9.57 0.12,0.02 v 0 l -0.62,0.31 0.22,-0.31 v 0 z m -2.05,0.25 -0.11,-0.66 0.42,-0.07 0.56,0.5 -0.4,0.09 -0.06,0.35 v 0 0 0 z"
               title="Москва" id="RU-MOW" />
            <path
               d="m 120.87011,565.22082 c 1.29539,-0.3885 1.83431,-2.90746 3.00535,-3.14764 -0.4063,-2.11007 2.63374,-0.90724 3.12381,0.87109 0.67145,1.20071 3.54297,3.28519 1.69757,4.16646 -0.91072,0.40597 -1.77358,2.46976 -0.28677,2.97155 2.67743,0.85923 0.0885,2.32562 -1.04806,3.26527 2.63827,0.0462 -1.15654,1.11844 1.1891,2.02648 1.29418,1.12591 2.60434,2.6515 2.509,4.52679 0.70493,2.83441 3.84547,-0.24632 3.2537,2.33779 -1.97145,0.74175 0.38485,2.13316 -0.4237,3.57221 -2.02223,-0.01 0.7624,3.02242 -0.42535,3.07186 -1.54757,0.34407 -2.38017,-3.31106 -4.3895,-1.9601 0.0103,2.40963 -2.16237,1.53267 -3.72623,2.20303 0.96834,1.42112 0.0212,3.92333 -1.93892,2.08521 -1.00887,1.42644 -2.85597,1.19666 -4.12,2.5 -0.79906,0.61088 -3.08587,0.81679 -3.51,-0.66 -0.89531,-0.59621 -3.48529,0.58979 -1.73,1 0.121,2.08723 -1.87125,1.88648 -1.40186,3.68928 -0.078,2.63101 -3.26597,0.79694 -4.18814,2.37072 -2.42989,-0.81921 -2.32124,-1.3264 -4.28639,-1.71119 -2.60054,-1.64102 -1.04198,2.94487 -2.31839,1.20766 -0.89439,-0.14102 -0.64744,1.91213 -1.70229,2.53084 -2.081387,0.23004 -2.640778,1.86216 -3.863527,1.33697 -1.456522,-0.02 -3.416229,0.7092 -3.259405,-0.72428 0.199749,0.81684 -3.180391,0.54011 -2.978595,0.33234 -0.06724,-1.66492 -2.059998,0.5001 -3.01635,-0.72626 -2.222654,0.50084 -3.336797,-2.65533 -1.994967,-3.8473 0.758149,-1.32846 -0.214808,-3.20379 0.356759,-3.85597 -2.299133,0.23153 -1.63585,-1.9702 -3.430426,-2.361 0.989076,-2.09804 -2.764933,-2.72301 -1.161664,-3.85911 0.190739,-3.03261 2.30897,-1.01891 4.052669,-1.57021 2.412095,0.90686 1.784343,-1.87044 3.252574,-2.21249 1.410058,1.36058 0.921488,-1.291 2.916322,-0.95282 -0.0032,-1.66244 2.046838,-1.20468 3.078175,-2.19916 0.738471,-2.28111 2.410802,-1.09005 3.653261,-1.50671 1.044407,1.12579 -0.100896,-1.97088 1.052242,-2.80131 1.010373,-0.46675 1.521192,-1.50908 2.461292,-3.21626 -1.0242,-1.61667 -0.8058,-3.6117 1.72811,-3.41489 0.94754,-2.06643 2.56871,0.28912 3.9606,0.12115 2.65381,2.72952 0.77091,-2.28078 3.02,-1.05 1.24206,0.67693 3.26836,-0.67551 2.92623,-2.25257 1.43163,-1.7781 4.27551,0.21561 4.92891,-1.19941 0.92877,-0.42528 1.96951,-0.41711 3.03486,-0.95802 z"
               id="RU-TVE" />
            <path
               d="m 129.15011,565.66082 c 0.38643,-1.51087 2.05915,-1.83224 2.55941,-2.08115 1.31605,-3.13821 6.40783,0.73762 7.15551,-2.72984 0.95,-3.28169 5.20856,-0.135 6.80641,1.23044 1.51737,2.34472 3.44796,3.45054 6.24001,2.85413 4.30426,0.34434 1.72468,4.86551 -0.0312,6.70905 -1.47912,2.20248 -0.35894,5.21154 -2.21149,7.29796 -0.94756,0.99393 0.64687,3.76827 -1.86892,3.36321 -2.81375,1.52288 -6.15083,3.94424 -5.87519,7.5347 -0.61657,2.77219 -4.18583,1.55679 -5.99473,0.96356 -2.65243,-1.34475 -2.90273,-4.43165 -2.15808,-6.96439 0.11632,-1.49963 0.60868,-3.21112 -1.46463,-2.68806 -1.64892,-1.90297 -1.90903,-4.72217 -4.09343,-6.24935 -0.75753,-2.41459 2.79242,-4.06984 -0.6754,-5.79684 -0.63527,-1.489 2.61588,-1.89232 1.61171,-3.44342 z"
               id="RU-YAR" />
            <path
               d="m 197.24011,550.10082 c -1.03145,2.60056 0.43872,3.40088 0.96,4.75 0.2258,2.33057 1.68863,1.12105 2.32,3.38 1.51148,2.95851 -2.5249,0.4429 -2,2.51 0.22413,1.05414 -2.13894,2.06108 -2.65,3.15 -2.15633,-0.55122 -2.05449,1.77544 -2.85659,2.86743 -1.16443,0.54785 0.23921,2.68946 -1.46341,3.80257 0.99366,1.7595 -3.62462,0.52164 -3.94489,1.83938 -0.82307,2.26649 -2.5555,-1.04689 -3.98511,-1.08938 -2.94581,-0.77599 -2.55129,1.39817 -2.86,3.2 0.36283,2.20668 -2.27949,1.52982 -2.81511,3.82445 -1.24057,0.852 -3.73257,2.25265 -5.11363,1.05242 -1.05828,-3.06847 -4.11696,2.18529 -3.56522,-0.82349 -0.87843,-3.13059 0.47823,2.48985 -1.65456,1.99337 -2.5365,-0.0276 -0.42582,-2.66555 -1.39301,-3.84775 -1.09132,0.60178 -2.71086,0.4601 -3.98847,1.341 -1.3546,0.27533 -3.23977,-2.444 -4.40828,-1.51381 0.84091,2.27081 -0.65561,3.62643 -2.84172,3.76381 -0.97394,0.64013 -1.54429,1.41005 -3.58,0.98 -1.42144,1.56237 -3.21216,-0.79952 -1.83,-2.21 -0.14684,-1.86841 2.21004,-0.59235 1.12309,-2.99375 0.26051,-1.8974 0.48403,-3.02784 1.19241,-4.77575 1.01643,-1.13479 1.33381,-2.62521 3.0045,-3.6905 -1.00533,-1.97313 -2.24843,-2.56142 -0.58,-3.96 1.4769,-0.92093 0.48891,-2.69667 0.75243,-3.71661 0.38765,-1.87762 1.20119,-0.0975 2.80403,-2.03476 1.58677,-0.96381 3.6631,0.18362 3.40662,-2.15604 -1.74613,-0.6005 -0.034,-4.65208 0.88706,-2.11127 0.19241,2.53827 3.12264,-0.9418 3.63986,1.69868 0.76144,2.09865 1.69394,0.32803 2.96635,-0.37535 1.22787,2.18398 2.41888,-2.34304 2.81054,0.78012 0.85055,-0.25343 1.69086,-1.26602 3.15705,0.0484 1.84671,-0.45944 2.24256,1.44915 4.42816,0.73216 2.27333,0.96458 3.24293,-0.43496 5.05269,-0.76089 1.67194,-0.65192 3.69142,0.99562 4.78431,-0.32923 0.082,-2.446 3.4303,-0.88126 3.2409,-3.33519 -1.09578,-2.79628 2.07845,-1.07012 3.01989,-2.06681 0.66004,0.0256 1.32007,0.0512 1.98011,0.0768 z"
               id="RU-KOS" />
            <path
               d="m 149.75011,581.91082 0.7,-0.42 0.71,0.17 0.24,-0.38 1.36,-0.18 0.83,0.49 v -0.42 l 0.41,0.02 0.46,-0.6 v -0.55 l 0.52,0.26 2.72,-0.85 0.31,-1.69 -0.24,-1.56 2.41,0.73 0.13,0.48 1.16,0.69 0.37,-0.3 0.39,0.25 0.84,-0.15 0.21,-0.5 0.63,-0.27 0.29,0.27 1.21,-0.17 0.29,-0.7 0.84,0.29 -0.25,1.23 0.38,1.04 -0.62,0.6 0.78,0.79 1.12,0.11 0.77,-0.5 0.21,-0.47 -0.29,-1.36 0.53,-0.95 0.2,2.61 0.93,-1.18 0.75,-0.32 1.27,0.27 0.45,0.4 0.13,0.63 v 0 l -0.11,0.47 1.14,0.68 -0.11,0.3 -0.34,-0.23 -0.2,0.57 -0.44,-0.32 -0.5,0.36 0.19,0.44 -0.86,0.4 -0.35,0.54 -0.07,1.22 0.9,0.22 -0.05,0.26 0.5,0.22 -1.23,2.34 -2.81,0.34 -0.03,0.34 -0.48,0.23 -0.57,-0.32 -0.8,0.32 -0.43,0.58 0.38,0.5 -0.38,0.89 0.35,0.29 0.4,-0.31 0.05,2.48 -1.68,0.07 -0.42,0.81 v 0 l -1.22,0.08 -0.17,-0.52 -1.04,-0.23 -0.67,0.19 -0.04,0.56 -0.88,0.76 -0.9,-0.38 -0.24,-1.66 -2.09,0.61 -0.55,0.45 -0.45,-0.63 -1.5,-0.09 -0.24,-0.35 -0.73,0.3 -0.19,0.41 -0.47,-0.45 -1.31,-0.33 -0.25,-0.98 -0.66,-0.21 -1.57,0.42 -0.17,0.37 -0.7,0.05 -0.14,0.37 -0.35,-0.1 -0.65,1.31 -0.65,-0.53 -0.91,-0.19 -0.68,-1.85 -0.64,-0.06 0.51,-1.14 -0.06,-0.86 -1.79,-0.56 -1.01,0.68 -0.4,-0.07 v 0 l -0.18,-1 0.38,0.01 0.17,-0.89 0.85,-0.35 -0.5,-0.79 0.42,-0.45 0.4,0.01 -0.04,-0.4 1.04,-0.62 0.18,0.18 0.68,-0.92 0.41,-0.02 0.54,-0.58 0.31,-0.13 0.5,0.49 0.36,-0.06 -0.01,-0.41 0.5,-0.33 -0.73,-0.44 1.74,0.17 z"
               title="Ивановская область" id="RU-IVA" />
            <path
               d="m 142.14011,588.78082 c 1.39508,-1.03406 4.50154,-0.25669 2.75,1.95 0.98347,0.49798 2.63222,4.25043 3.53,1.32 0.85565,0.0412 3.22167,-2.26711 3.75816,-0.24081 1.51408,1.48284 2.55657,0.18889 4.52184,0.83081 1.06156,1.0508 3.68828,-1.71983 3.64336,1.36231 1.46707,-0.19009 2.44527,-2.05257 4.06548,-0.55682 0.97476,0.67245 3.0461,2.56581 2.29174,3.63522 -1.60733,0.62083 -1.45362,2.50108 -2.96193,3.35254 -0.47986,1.6119 -3.24145,2.32378 -2.63865,4.56675 0.51322,1.7179 -1.22357,3.05874 -1.80667,4.72418 -1.63705,0.17544 -2.91127,0.0518 -4.47333,-1.11418 -0.92471,2.81985 -1.55957,-1.84777 -2.67045,0.16099 -1.81902,1.58958 -1.79962,-2.36318 -2.83955,-0.76099 -0.64257,-0.53216 -2.14276,-0.92605 -1.73958,-3.06888 -0.94804,-0.44998 -1.10371,-2.58895 -1.95042,-3.98112 -1.89355,-0.389 -3.15384,2.06766 -4.22007,0.0898 -0.34197,0.0465 -2.06157,-1.51133 -2.51211,-1.46503 -1.92614,-0.13955 -2.79237,-0.67246 -3.09042,-2.65595 -0.4726,-1.13 -0.77822,-2.5123 -0.8174,-4.01881 -0.99379,-0.0903 -0.75732,-3.31654 0.19835,-2.95757 0.60729,2.67404 2.25481,0.0262 3.76178,1.58427 1.51419,-0.26837 3.30958,0.57775 2.61312,-1.77371 0.15271,-0.33621 0.39978,-0.6544 0.58675,-0.98299 z"
               id="RU-VLA" />
            <path
               d="m 147.93011,607.33082 c 0.64492,-0.46664 1.05243,0.22768 0.84426,0.63966 0.68018,-0.0477 1.67406,-0.93192 1.36581,0.38889 0.62041,1.4164 2.36894,0.11097 3.00305,-0.10905 0.46109,0.63146 0.98502,2.12445 1.39111,0.5924 1.17494,-0.51338 1.95822,1.74795 3.17618,0.77862 1.38096,-0.19425 1.51971,1.77608 2.84257,0.91946 -0.30591,2.25107 2.23639,0.75322 3.36517,1.02146 0.0464,0.68749 -0.24138,2.16114 -0.77238,2.74139 0.44489,1.2091 2.7669,1.11139 2.29058,2.79233 -0.54461,0.67693 -1.26867,1.16698 -0.43388,1.98156 -0.4042,0.8355 -1.76829,1.70164 -2.91076,2.04599 0.64338,1.49379 1.65806,-0.82222 2.52024,0.18267 0.8383,-0.1007 1.48926,0.74017 0.31287,0.75807 -0.67214,0.41486 -0.48516,0.95378 -1.44255,0.61878 -1.66132,-0.5673 0.0769,1.12248 0.56334,1.64309 -0.23337,1.49445 -2.15745,2.10408 -3.55506,1.8935 -1.41091,0.22209 -3.16249,-0.18643 -4.24741,0.96616 0.30932,1.23775 -0.62777,3.48117 -1.90426,3.4322 -0.47264,-0.79731 -1.57873,-0.9215 -1.92168,-0.72947 -0.52939,-1.35133 -1.8082,0.17987 -2.04617,0.28026 -1.08253,-0.77582 -0.33849,1.8118 -1.69102,1.16917 -0.81873,1.00939 -2.1875,-0.18599 -2.93199,-1.021 0.66262,-1.93156 -2.78896,-1.74654 -2.68899,-0.038 -0.72386,0.73539 -2.69632,1.0244 -3.11483,-0.18361 -0.17168,-0.84703 -1.02418,-1.2959 -1.6191,-1.33563 -0.0711,-0.91866 0.91424,-2.08553 -0.22771,-2.45213 -0.69952,-0.94858 0.63772,-1.94098 -0.61133,-2.28546 -0.37402,-0.8136 -1.00437,-1.39267 -0.0365,-1.97125 -0.30475,-0.55804 -1.09334,-1.19914 -0.35659,-2.02056 0.33699,-0.86809 2.6148,-0.54577 1.3499,-1.64919 -1.57436,-0.58292 -0.37858,-2.80994 1.11657,-2.255 1.57435,-0.19887 2.15705,-1.94917 2.6538,-3.34156 0.25811,-1.75507 2.75577,-0.94932 3.03578,-2.44464 -0.16493,-0.34878 -1.40221,-0.87775 -0.1827,-1.21104 1.22188,-0.085 2.32045,-0.92949 2.86356,-1.79812 z"
               id="RU-RYA" />
            <path
               d="m 126.36011,613.39082 c 1.09175,-0.41415 1.74437,0.83273 2.58893,1.26561 1.11179,0.39964 1.73909,-1.81089 2.98573,-0.70388 0.71494,0.79834 1.05311,1.94599 2.39749,1.89071 1.90517,0.32407 -0.38976,2.03024 0.69291,3.03611 0.57852,1.35362 1.99933,2.19514 2.19029,3.72968 0.0351,1.30786 0.8058,2.32193 0.96291,3.6569 0.69722,0.40884 1.03896,1.07502 0.38034,1.7848 -0.98051,1.09657 -0.70269,2.73926 -2.01583,3.61452 -1.46482,1.08341 0.97647,2.52099 -0.54889,3.61394 -1.02105,0.79133 -2.29011,0.21904 -3.29279,-0.29418 -1.05985,-0.57535 -2.55648,0.51073 -3.29809,-0.83119 -0.67669,-0.72078 -0.75164,-2.43727 -2.08329,-1.99558 -1.20912,0.46897 -2.46265,0.40541 -3.63164,-0.11145 -1.19386,-0.50138 -2.16674,-1.4073 -3.34112,-1.94095 -1.07907,-0.79085 -2.63322,-1.35072 -2.89577,-2.83661 -0.77179,-1.10167 0.0491,-2.40352 0.8165,-3.25524 1.13196,-0.61721 -0.20527,-1.67252 0.25205,-2.36051 1.43005,-0.24745 2.48637,-1.86439 4.05671,-1.4668 1.4459,0.88876 2.21566,-1.28692 1.26038,-2.1904 0.0357,-1.64746 2.82172,-1.46207 2.5065,-3.33339 0.008,-0.42394 -0.0385,-0.84969 0.0167,-1.27209 z"
               id="RU-TUL" />
            <path
               d="m 113.02011,608.39082 c 0.98003,1.4665 2.48922,-1.6153 3.46316,0.17678 1.14008,-0.0157 2.81091,1.61538 3.595,0.16004 0.33508,-0.9319 2.08719,-1.82284 2.16184,-0.27476 0.57535,-0.008 0.99746,0.0705 1.38218,0.57997 1.19577,-1.0139 1.6163,0.93327 2.16666,1.53725 -0.0532,1.15819 0.80775,2.64481 0.39174,4.03756 -0.002,1.0399 -0.39288,2.94191 -1.67377,1.81004 -0.72641,0.20335 -0.49502,0.99665 -0.92072,1.43421 0.50081,0.63036 0.96498,0.75038 0.75768,1.63019 0.0721,1.607 -2.11087,0.23625 -3.03643,0.68763 -0.6297,0.86454 -1.90946,0.66077 -2.43193,1.53822 -0.53094,-0.009 -1.32506,-0.12717 -0.39636,0.27923 0.36055,0.46844 -1.18282,0.51228 0.0105,0.50364 1.20738,-0.004 -0.27013,1.13412 -0.0714,1.81484 -0.60689,0.10831 -1.09959,0.26118 -0.99228,1.01801 -0.87437,0.40846 0.0234,1.6331 0.36368,2.13709 -0.40207,0.76493 -1.55724,1.46161 -2.02136,1.83892 -1.09255,-0.97862 -1.47686,1.39707 -1.85733,1.06469 0.24569,-1.54113 -0.66012,0.59527 -0.9518,0.89125 -0.68358,0.6699 -1.8673,1.39736 -2.42028,0.10591 -1.20506,-0.15089 -3.14547,-0.17904 -3.59471,-1.46271 -0.23256,-1.12529 0.27549,-2.4633 -0.87962,-3.13195 -0.62423,-0.87888 -1.33897,-2.05332 -2.50324,-1.23376 -1.35714,-0.13442 -1.38123,-2.36159 -2.91946,-2.1477 -0.774657,0.33167 -1.597424,-0.59898 -0.5456,-0.81482 0.36578,-1.09096 1.07183,-1.99385 0.99463,-3.07421 -0.52746,-0.2699 -0.0173,-1.26936 -0.18154,-1.81301 0.95149,-0.71416 2.06843,-1.21099 3.25197,-0.62993 0.91776,0.46025 2.87049,0.91151 2.86656,-0.65847 0.15764,-0.73011 -0.98847,-1.64971 0.26866,-1.02314 1.15987,0.10816 3.44949,-0.86317 2.28257,-2.04485 0.24145,-1.05868 1.32944,-1.99361 2.20507,-1.80761 0.0916,-1.18259 1.61508,-1.85306 1.23592,-3.12855 z"
               id="RU-KLU" />
            <path
               d="m 84.910108,601.79082 c 2.259745,1.08302 3.168142,0.78272 4.667932,0.68859 0.514164,1.15144 0.793376,0.81645 2.717562,0.60855 1.559785,-0.12138 0.212425,0.78596 2.28143,0.35678 2.086465,0.1726 2.620644,0.42634 3.836501,-0.88766 1.636447,-0.1543 2.918007,-1.17489 2.676577,-2.58626 0.96282,-0.46715 1.7367,0.51773 1.48553,-1.66622 1.83843,-0.74815 3.06616,1.34237 3.93914,0.73171 1.51533,2.18531 3.34167,-0.80376 5.07276,0.79105 0.82905,1.42619 1.77961,3.33644 1.3494,4.54958 -0.52059,1.29926 -0.52261,3.43503 0.10317,4.85388 -1.09422,2.4217 -1.62753,1.99043 -3.28585,3.51021 0.96545,1.62286 -1.38212,3.31888 -3.31415,2.34979 1.96368,2.05626 -1.16979,2.9866 -2.28,2.07 -1.23177,-0.8699 -3.4295,-0.008 -3.18927,1.16208 0.25341,1.60325 -0.14257,2.58929 -0.81073,4.35792 -0.815341,0.94341 -0.858522,1.3626 -2.041677,2.19925 0.605706,1.55708 -0.75442,1.60032 -1.700618,3.18732 -1.165593,1.03702 -1.18531,3.60178 -2.476966,1.97801 -0.57035,0.11057 -2.842995,-1.8136 -1.60056,-2.70471 -0.974054,-0.68256 -1.722048,-1.36942 -3.317828,-1.28579 -2.898732,0.84046 -1.029368,-1.26102 -1.392353,-2.47408 0.723563,-1.25588 -1.817203,-1.38387 -2.708948,-2.58366 -1.226951,-0.89376 -1.221992,-3.28549 -2.529614,-3.99092 1.570652,-2.0034 -1.307995,-1.83195 -2.481438,-3.30542 0.209645,-2.20228 2.344313,-2.23948 1.67379,-4.41166 -1.52144,-1.50436 -0.820786,-2.9395 -0.25379,-4.33834 -0.531471,-1.11617 0.05267,-3.59255 1.887158,-2.77378 0.544642,-0.0134 1.138348,-0.2815 1.692842,-0.38622 z"
               id="RU-SMO" />
         </g>

         <g id='CHERNOZEM'>
            <path
               d="m 134.26011,647.82082 1.54,-0.95 0.83,0.25 0.43,-0.95 0.62,0.3 0.37,-0.29 0.56,0.2 0.43,0.83 0.7,0.43 0.46,-0.2 0.17,-1.05 2.05,0.09 0.66,0.33 0.17,1.1 1.42,0.53 1.1,-0.01 0.44,-0.55 4.3,0.21 v 0 l 2.81,0.8 0.26,0.48 -0.19,1.19 0.47,0.35 1.82,-0.18 0.61,-0.72 1.86,0.32 1.03,0.65 0.68,-0.23 0.69,0.79 0.85,0.01 0.53,0.36 0.22,-0.79 0.69,0.05 0.56,1.13 0.58,-0.36 0.68,0.34 v 0 l 0.51,0.62 1.38,0.43 0.33,0.42 0.35,0.63 0.1,1.57 v 0 l -1.42,0.36 -0.45,0.67 -1.37,0.03 -0.75,0.36 -2.99,-0.28 -0.87,1.07 -0.27,0.93 -1.13,0.72 -0.55,-0.07 -0.55,0.52 -0.1,0.72 -1.31,0.3 -0.21,0.32 0.97,0.55 1.52,1.82 -0.64,0.33 0.16,2.16 -0.87,1.54 v 0 l -0.28,1.35 -1.96,1.81 -1.06,2.46 -1.92,0.54 -0.89,0.56 -2.2,-0.48 -0.54,0.68 v 0 l -0.54,-0.63 -1.26,0.24 -0.31,0.41 -0.85,-0.1 -1.04,-0.7 -0.27,-1.2 -1.14,-0.26 -0.61,0.28 -0.73,-0.32 -0.27,-0.59 v 0 l 0.45,-0.31 0.6,-1.59 -0.07,-0.58 -0.84,-0.78 -0.44,-1.93 0.23,-0.55 -0.58,-1 0.53,-0.69 -0.29,-0.69 0.67,0.03 0.12,-0.36 -1.09,-0.41 -0.46,-0.7 -0.53,0.03 -0.58,-0.75 0.11,-0.52 -0.75,-0.41 0.2,-0.94 0.73,0.25 0.25,-0.31 -0.53,-0.56 0.17,-0.81 -0.66,-0.59 -0.94,0.82 -1.58,-0.53 -0.09,-0.79 0.64,-0.39 0.04,-0.56 -0.2,-0.43 -1.27,-0.35 v 0 l 0.26,-0.88 -0.28,-1.39 -1.11,-2.02 1.83,-0.46 0.57,0.39 0.71,-0.69 -0.97,-0.51 0.15,-0.82 -0.3,-0.75 z"
               title="Воронежская область" id="RU-VOR" />
            <path
               d="m 147.57011,631.82082 0.71,0.13 0.25,-0.92 0.39,0.44 0.95,-0.54 -0.24,-0.8 0.48,-0.32 0.56,0.7 -0.04,-0.61 0.55,-0.12 0.19,-0.65 0.57,0.04 0.4,0.87 0.24,0.1 0.42,-0.49 1.06,0.46 0.31,0.7 0.45,0.06 0.21,-0.87 0.37,0.19 0.37,-0.21 -0.16,-0.49 0.47,-0.11 0.35,-2.62 0.99,-0.03 0.24,-0.63 0.15,0.44 1.19,-0.35 0.16,0.29 0.84,-0.32 1.32,0.07 v 0 l 0.26,0.23 -0.2,3.08 1.34,0.85 -0.16,1.15 0.3,0.29 0.81,0.04 1.13,1.56 -0.06,0.83 2.8,2.49 2.12,2.69 0.04,0.75 -1.17,1.34 -0.03,1.18 v 0 l -0.73,0.57 -0.24,1.11 -0.92,1.54 0.03,0.69 -0.86,1.77 -0.01,0.77 -1.22,1.83 -0.14,0.65 0.25,0.64 v 0 l -0.68,-0.34 -0.58,0.36 -0.56,-1.13 -0.69,-0.05 -0.22,0.79 -0.53,-0.36 -0.85,-0.01 -0.69,-0.79 -0.68,0.23 -1.03,-0.65 -1.86,-0.32 -0.61,0.72 -1.82,0.18 -0.47,-0.35 0.19,-1.19 -0.26,-0.48 -2.81,-0.8 v 0 l 0.67,-2.3 0.71,-0.35 0.04,-0.65 -1.46,-1.25 -1.34,-0.39 -0.33,-0.42 0.23,-0.57 -2.03,-1.1 -0.78,-2.08 0.36,-0.77 0.63,0.07 0.26,-0.32 -0.49,-1.06 0.71,-0.89 -0.46,-0.28 0.18,-0.51 -0.34,-1.91 z"
               title="Тамбовская область" id="RU-TAM" />
            <path
               d="m 138.37011,628.88082 0.35,0.2 0.51,-0.23 0.34,0.28 0.88,1.9 0.92,-0.38 0.5,0.23 1.13,-0.23 0.2,-1.11 1.29,-0.79 0.17,0.4 0.38,-0.28 0.84,0.5 v 0.87 l -0.29,0.07 0.58,0.65 0.81,0.16 0.59,0.7 v 0 l -0.5,1.49 0.34,1.91 -0.18,0.51 0.46,0.28 -0.71,0.89 0.49,1.06 -0.26,0.32 -0.63,-0.07 -0.36,0.77 0.78,2.08 2.03,1.1 -0.23,0.57 0.33,0.42 1.34,0.39 1.46,1.25 -0.04,0.65 -0.71,0.35 -0.67,2.3 v 0 l -4.3,-0.21 -0.44,0.55 -1.1,0.01 -1.42,-0.53 -0.17,-1.1 -0.66,-0.33 -2.05,-0.09 -0.17,1.05 -0.46,0.2 -0.7,-0.43 -0.43,-0.83 -0.56,-0.2 -0.37,0.29 -0.62,-0.3 -0.43,0.95 -0.83,-0.25 -1.54,0.95 v 0 l -0.64,0.4 -0.66,-0.16 -1.11,0.3 -1.15,-0.5 -0.51,-1.11 v 0 l -0.01,-1.39 1.38,-1.08 0.37,0.19 0.35,-0.26 0.2,-0.62 -0.56,-0.69 0.05,-0.39 -0.45,0.01 -0.17,-0.41 0.36,-0.34 -0.84,-0.26 -0.12,-0.29 0.42,-0.25 -0.88,-0.77 -0.6,0.06 -0.04,-0.43 0.56,-0.02 0.8,-1.49 -0.32,-0.71 0.29,-0.84 -0.41,-0.5 0.23,-0.88 v 0 l 0.43,-0.01 -0.06,-0.58 0.65,0.01 0.1,0.28 1.9,-0.14 0.34,1.21 0.6,-0.23 0.02,-0.38 0.34,0.14 0.35,-0.91 0.29,-0.03 0.09,0.67 0.51,-0.06 -0.03,-0.51 0.27,0.08 0.33,-0.65 -0.88,-0.84 0.53,-0.15 -0.91,-1.51 2.05,-0.6 -0.46,-1.07 0.27,-0.13 -0.49,-0.27 0.87,-0.66 0.43,0.29 z"
               title="Липецкая область" id="RU-LIP" />
            <path
               d="m 117.46011,627.95082 c 0.2168,1.33572 2.39102,0.58245 2.55887,2.21397 0.53304,0.86746 1.90909,0.64239 2.28698,0.65096 0.33148,2.11453 2.60453,0.85884 3.8326,1.91412 0.75509,-0.45586 0.93428,-1.02416 2.03494,-0.53892 1.29052,-0.24771 0.12794,2.9073 1.63144,1.79336 1.42226,1.18478 0.68026,2.81372 1.16572,4.22887 0.0656,1.06505 -1.2494,1.4182 -1.23396,2.01697 1.07786,-0.19432 1.28474,0.84039 1.25151,1.31738 1.32597,-0.0802 -0.2637,0.9976 0.97348,1.02486 0.37954,0.70404 0.77882,2.0767 -0.53155,1.81133 -1.00544,0.4725 -1.44925,1.30388 -1.24066,2.36709 -0.71003,0.0157 -0.78545,1.37719 -1.453,0.23297 -0.82376,-0.18036 -1.01186,1.69824 -1.81101,0.24262 -0.80209,-1.57737 -2.85447,-0.75739 -3.90408,-2.00317 -1.45599,-0.31583 -2.4767,-1.24403 -3.34426,-2.4784 -1.62911,0.25053 -3.21441,0.8733 -4.82765,1.26598 -0.69369,-0.32389 -0.57955,-3.2851 -1.49939,-1.72877 -0.79708,-0.69084 -0.56125,0.94934 -1.56947,0.004 -0.58163,0.90573 -3.04319,0.80078 -2.49582,-0.49165 0.55939,-0.49911 1.47485,-0.84872 0.8227,-1.49539 0.273,-0.56316 -0.41717,-0.97062 0.5071,-0.99673 -0.4426,-0.58977 0.25956,-1.2944 -0.68875,-1.25092 -0.48374,-0.33602 -1.0403,-0.23109 -1.25642,-1.13064 1.13221,0.10534 0.27261,-1.23249 1.36659,-0.80337 -0.0729,-1.02365 1.05941,0.83308 1.28577,-0.42486 -0.12925,-0.64131 1.54513,-0.44384 0.65913,-1.33983 -1.33622,-0.36524 -0.64742,-0.95701 -0.7104,-2.0975 1.05128,-0.39016 2.02394,-0.98666 2.4178,-2.36407 0.85249,-0.58788 -0.34955,1.3579 0.58076,0.39715 0.0948,-1.02066 0.86165,-1.4654 1.51151,-0.92933 0.59061,-0.15732 0.9556,-1.15172 1.67952,-1.4082 z"
               id="RU-ORL" />
            <path
               d="m 109.99011,642.96082 1.34,-0.25 0.32,-0.47 1.07,0.37 0.07,-0.63 0.67,0.36 0.15,-0.6 0.5,0.17 0.42,1.92 0.32,0.18 4.67,-1.31 0.41,0.12 1.01,1.63 0.94,0.15 0.26,0.46 0.73,0.05 1.03,0.78 2.13,0.38 1.51,1.6 0.31,-0.1 0.36,-0.86 0.65,0.09 0.47,0.58 0.56,-0.9 0.3,0.07 v 0 l 0.51,1.11 1.15,0.5 1.11,-0.3 0.66,0.16 0.64,-0.4 v 0 l 1.07,0.7 0.3,0.75 -0.15,0.82 0.97,0.51 -0.71,0.69 -0.57,-0.39 -1.83,0.46 1.11,2.02 0.28,1.39 -0.26,0.88 v 0 l -2.4,-1.68 -0.76,0.06 -0.97,0.66 -1.09,-0.27 -1.5,0.1 -0.47,0.37 -1.49,0.33 -0.72,1.15 -1.81,0.31 -1.4,1.18 -1.89,-0.41 -0.66,-0.47 -0.95,0.35 -0.6,-0.66 -0.63,0.71 0.44,0.24 -0.17,0.52 -0.55,0.14 -0.48,0.82 -0.62,-0.29 -0.6,0.46 -1,0.17 -0.35,-0.68 -0.68,-0.15 v 0 l 0.23,-0.39 -0.64,-0.36 -1,0.31 -0.6,-1.88 -0.97,-0.15 -1.19,0.68 -0.88,-0.13 -0.23,-0.68 -1.73,-0.22 -0.54,0.4 -0.49,-0.32 0.52,-1.19 -0.86,-0.48 0.68,-1.41 -1.62,-1.55 2.37,-0.73 -0.03,-1.23 -0.65,-0.45 v 0 l 0.62,-0.76 -0.83,-0.28 0.18,-0.97 0.89,-0.68 1.44,0.05 0.27,-0.77 -0.3,-0.67 0.37,-0.26 0.57,0.33 0.26,-0.15 z"
               title="Курская область" id="RU-KRS" />
            <path
               d="m 113.12011,658.61082 0.68,0.15 0.35,0.68 1,-0.17 0.6,-0.46 0.62,0.29 0.48,-0.82 0.55,-0.14 0.17,-0.52 -0.44,-0.24 0.63,-0.71 0.6,0.66 0.95,-0.35 0.66,0.47 1.89,0.41 1.4,-1.18 1.81,-0.31 0.72,-1.15 1.49,-0.33 0.47,-0.37 1.5,-0.1 1.09,0.27 0.97,-0.66 0.76,-0.06 2.4,1.68 v 0 l 1.27,0.35 0.2,0.43 -0.04,0.56 -0.64,0.39 0.09,0.79 1.58,0.53 0.94,-0.82 0.66,0.59 -0.17,0.81 0.53,0.56 -0.25,0.31 -0.73,-0.25 -0.2,0.94 0.75,0.41 -0.11,0.52 0.58,0.75 0.53,-0.03 0.46,0.7 1.09,0.41 -0.12,0.36 -0.67,-0.03 0.29,0.69 -0.53,0.69 0.58,1 -0.23,0.55 0.44,1.93 0.84,0.78 0.07,0.58 -0.6,1.59 -0.45,0.31 v 0 l -0.4,-0.64 -0.36,0.48 -1.14,0.37 -0.24,-0.69 -1.3,-0.47 -0.43,-1 -0.17,0.44 -1.15,-0.1 -0.19,-0.35 -0.52,0.13 -0.47,-1.1 -1,0.11 -0.07,0.82 0.26,0.31 -1.38,0.58 0.1,-0.37 -0.94,-1.16 -1.13,-0.4 -0.77,-0.9 -0.04,-1.44 -0.46,0.07 -0.72,-0.61 0.02,-0.93 -0.54,0.29 -0.53,-0.11 -1.21,0.8 -2.21,0.16 -1.42,1.19 -0.63,-0.32 0.16,-0.49 -0.27,0.16 -0.71,-0.54 -1.03,0.46 -0.25,-0.73 -0.9,-1.01 -0.58,-0.17 -1.72,0.16 -0.68,1.01 -0.77,-0.01 -0.35,-1.19 -0.51,-0.17 -0.71,-1.21 0.04,-0.76 0.61,-0.22 -0.09,-1.07 -0.68,-1.22 0.07,-0.61 -0.44,-0.18 0.02,-0.77 z"
               title="Белгородская область" id="RU-BEL" />
            <path
               d="m 99.870108,623.48082 c 1.554432,-0.77723 2.420282,1.18159 3.095622,1.79641 0.77979,0.66642 1.90546,-0.71191 2.28039,0.60252 0.78276,0.44166 0.96996,1.22476 1.55797,1.78447 0.25978,1.00512 -0.35699,2.48923 0.70215,3.06542 1.04289,0.27544 2.12885,0.59823 3.12212,0.73871 0.87843,0.61195 0.59319,1.90036 0.55921,2.47 0.98319,0.036 1.44661,1.4835 0.23779,1.38166 0.13409,1.24991 -1.45807,0.55913 -1.26931,0.52088 -0.2221,0.54241 -0.97984,0.0247 -0.79948,0.78025 -1.06528,-0.0199 -0.34911,1.70101 0.28473,1.11825 0.41853,0.62828 1.07941,0.21624 0.80369,1.164 0.66195,0.76884 -0.98772,0.25545 -0.28147,1.18387 -0.22068,0.62572 0.71976,0.78438 -0.18857,1.14659 -0.95383,0.46427 -1.11013,1.31516 -0.0707,1.65099 -0.29445,0.81453 -0.86309,2.33971 -1.93175,1.69771 -0.11498,0.61649 0.26644,2.01974 -1.02607,1.57278 -1.04576,-0.38493 -2.46288,1.67819 -0.96965,1.87205 0.0833,0.55834 -1.24873,1.31968 -1.07815,0.4091 -0.74163,-0.74607 -1.7601,-1.54504 -0.97414,-2.71407 -0.57083,-1.03574 -1.60995,-1.68136 -2.06414,-2.47385 -0.99635,-0.48192 -2.270114,1.45609 -2.31301,-0.0116 -0.744961,0.0475 -1.566967,0.0315 -2.219683,-0.11046 -0.417181,0.74232 -1.489931,0.74984 -2.047462,1.27022 -0.71813,-0.46467 -1.828176,0.40382 -2.325379,-0.7392 -0.656478,-0.52008 -2.089133,-0.41117 -1.356232,0.6692 -0.791316,0.50472 0.249059,2.10317 -1.242142,2.2557 -0.648647,0.20384 -2.14239,1.09185 -2.065832,-0.27926 -1.219486,0.3621 -0.750099,-1.26453 -1.779874,-1.34922 0.75128,-1.00414 -1.224618,-0.91993 -0.448744,-1.99576 -0.03344,-0.76974 -0.524831,-1.68431 0.254105,-2.11609 -0.863994,-0.50283 -1.201419,-1.52776 -0.461086,-2.14702 0.232739,-1.29667 -1.383993,-1.64083 -1.616643,-2.806 -0.283531,-0.43933 -1.241298,-0.70012 -0.346948,-0.71406 0.709244,-0.66373 0.312746,-2.32949 1.758245,-1.87665 1.130125,-1.3054 1.592133,0.95514 2.554767,1.08475 1.086015,0.40672 2.334378,0.088 3.115085,-0.6889 0.425594,-0.37697 1.206023,-0.87047 1.357808,-1.61451 1.124574,0.0895 1.493343,-1.00297 1.993943,-1.71435 1.360029,0.42067 0.382055,-1.91471 1.638464,-2.18287 0.571978,-0.52871 0.774173,-1.25353 1.375964,-1.40867 -0.387338,-1.02554 1.466101,-0.47773 0.446873,-1.4129 -0.167249,-0.7446 0.333327,-1.68892 1.076649,-1.01888 0.30266,-0.34396 -0.05936,-0.87401 0.66093,-0.86124 z"
               id="RU-BRY" />
         </g>

         <g id='SOUTH' className={getClassName('SOUTH')} {...selectHandler}>
            <path
               d="m 159.57011,728.66082 c -2.16637,0.71036 0.72044,2.79036 -1.27661,3.86318 -1.36811,2.0498 -2.48438,-0.56779 -4.25726,-0.50078 -1.64075,-0.36234 -1.00754,2.03798 -2.34746,2.76924 -0.61913,1.15505 0.2467,3.57998 -2.01384,2.84714 -1.43945,-0.61998 -3.08992,-0.63416 -3.41317,1.2321 -1.10466,-0.32714 -2.39409,-2.21366 -3.46196,-3.23723 -0.98934,-1.65826 -2.76528,-2.58892 -3.85781,-4.14606 -1.45462,-1.24544 -3.20165,-2.02355 -5.06712,-2.36167 -1.48011,-0.71972 -2.20646,-2.70781 -3.52299,-3.1136 -1.86204,1.71454 -3.54853,-1.65559 -4.29707,-3.11583 -0.99471,-0.8591 -4.13694,-0.67712 -3.81118,-1.98892 0.79712,-0.10396 3.51792,-1.24835 1.20553,-0.97239 -0.82687,-0.8391 0.1189,-1.99473 1.24723,-1.0374 1.61931,1.5266 4.60782,0.65875 4.47197,-1.79789 -0.29331,-1.22183 1.93318,-1.44835 1.86644,-3.05422 0.11288,-0.94284 1.51004,-2.47985 1.56985,-0.87433 0.001,-1.56889 1.52747,-2.21098 2.48191,-0.84669 2.22018,0.0987 -1.02014,-1.82483 -1.41213,-2.47479 -0.98942,-1.37698 -2.88812,-0.82721 -3.19263,-2.76146 -0.41927,-0.78598 -0.65369,-1.49872 0.38513,-0.80655 1.53077,0.008 2.79746,-1.53185 3.95756,-0.12196 1.17614,0.20878 1.61807,-0.93559 0.23965,-1.07899 -0.89876,-1.41256 1.71184,-1.40386 2.25243,-0.97398 1.69354,-0.40555 -0.85293,2.87203 1.29337,1.72336 1.9379,0.29623 1.90582,-2.75118 4.04779,-1.75934 1.64313,0.47877 4.36139,-0.0301 3.44838,2.58768 0.57871,0.82352 1.74107,0.95873 1.74519,2.32637 0.73604,1.68257 2.9589,0.25992 4.30585,1.20589 1.29585,-0.70392 1.16625,1.66281 2.25176,2.31568 0.47382,1.16444 1.68001,3.31855 -0.55956,3.49372 -2.35278,-0.69969 -1.16244,2.08354 -0.2545,2.90576 -0.2329,1.8325 1.34099,1.91304 2.56945,2.10591 -0.0356,1.87308 3.01706,2.29046 2.38196,4.12973 -1.34814,0.58955 -1.81843,1.95455 -0.20221,2.64235 0.40779,0.29296 0.84207,0.5508 1.22605,0.87597 z m -14.8,2.11 c 0.0714,1.84866 3.18413,1.00903 1.73175,-0.42914 -1.78751,-0.88795 -1.73356,-3.33462 -0.45041,-4.65082 1.09536,-1.46888 -2.02265,-4.06863 -2.40325,-2.27438 -0.77951,2.17596 -3.40315,1.01999 -5.04583,0.93899 -1.08081,-0.0342 -3.81869,-2.35355 -1.34444,-1.8332 2.04323,1.11484 4.05966,0.27021 5.80488,-0.94169 1.76077,-0.77146 2.92256,1.30988 4.78806,0.58995 2.30732,0.15905 2.51087,3.02043 3.47785,4.61926 0.6948,0.7676 0.71825,2.50279 -0.26924,1.09246 0.11649,-1.53492 -1.93006,-3.39324 -2.23156,-0.98836 0.60521,1.60356 0.98887,3.10651 0.5062,4.78562 0.79288,1.76129 -0.5533,4.47208 -2.46775,2.66374 -0.9836,-1.03028 -4.05806,-0.23425 -2.39507,-2.22561 0.47911,-0.68362 -0.95725,-1.14423 0.29881,-1.34682 z"
               id="RU-KDA" />
            <path
               d="m 158.52011,712.74082 c 1.16576,-0.34557 2.34494,0.83093 3.26245,0.54416 0.0596,-0.65409 0.1396,-2.70658 1.2263,-1.4442 -0.87787,1.8352 1.6814,1.37529 2.28231,0.37736 1.41394,0.1853 1.63911,-2.57084 2.7008,-1.04581 1.71467,0.35515 2.79595,2.06264 4.55256,2.00264 1.80229,0.2633 3.16227,1.19724 3.74344,2.93931 0.85319,1.45227 2.26408,2.322 3.93643,2.48718 1.32551,0.50799 2.42802,1.50685 3.83391,1.97013 1.22759,0.49289 2.95401,1.40707 2.85056,2.87901 -1.21026,0.86401 0.31245,2.4723 -1.13765,3.41631 -0.64986,0.64139 -2.09648,0.89498 -1.35999,1.99399 1.94286,-0.0562 0.84712,2.35095 -0.62365,2.09244 -0.81336,0.99585 1.45479,0.95645 2.00264,0.6665 0.74692,0.89722 0.0512,2.43268 -0.44299,3.251 -1.12238,0.71627 -1.71051,-1.70626 -2.39704,-0.18376 0.55908,1.3681 -1.19236,2.8818 -1.84734,1.09303 -0.89751,-1.14661 -3.29565,1.17858 -3.18091,-0.68796 0.46098,-0.35049 1.08597,-2.13043 0.1893,-0.93805 -0.865,1.42562 -2.7043,-1.44491 -3.54263,0.35008 -0.29605,2.04917 -2.27815,0.0767 -3.47873,1.11664 -0.37508,-0.82969 -0.73039,-1.70252 -1.61447,-0.79047 -1.2327,0.23039 -3.40757,1.52186 -3.25858,-0.68765 -0.23261,-0.84781 -0.97805,-1.14776 -1.21805,-0.24758 -1.94823,-0.22749 -0.96086,-2.22804 0.49084,-2.44974 1.25612,-0.10893 0.85993,-1.39534 -0.0432,-1.6191 -0.17225,0.73649 -1.2293,1.3065 -1.61381,0.29523 -1.38561,-0.2181 -2.61968,-0.4359 -3.28632,-1.71845 -1.38081,0.46828 -3.02133,-0.84398 -3.44718,-2.14822 1.06879,-0.194 2.36878,-2.0635 0.98724,-2.70357 -1.42958,-0.29255 -1.48198,-2.00595 -2.18136,-2.67497 -1.12598,-0.001 -2.51975,0.0281 -2.20257,-1.51786 0.0446,-1.36078 -2.52803,-2.22532 -0.89516,-3.42845 0.84741,-0.25004 1.61423,0.56563 2.02671,-0.54951 1.63028,-0.46979 -1.56858,-2.278 0.36529,-2.31259 1.15432,0.58671 1.78382,-0.92565 3.09068,-0.33327 l 0.22996,0.006 z"
               id="RU-STA" />
            <path
               d="m 144.77011,730.77082 1.01,1.4 1.07,-0.59 -0.04,-1.25 -0.44,0.01 -0.34,-0.63 -0.5,0.02 -0.37,-0.38 0.26,-0.8 -0.4,-1.32 0.57,-0.54 -0.02,-0.74 0.94,-0.62 -0.67,-0.48 0.37,-0.39 -0.16,-0.56 -0.62,-0.21 0.23,-0.57 -1.21,-0.08 -0.65,-0.57 -0.64,1.99 -1.16,0.37 -1.89,-0.39 -1.11,0.12 -1.37,-0.57 -0.66,-0.7 -0.84,-0.14 -0.22,-0.44 0.44,-0.57 0.49,0.43 0.8,-0.14 1.03,0.64 1.65,-0.1 2.02,-0.91 1.08,-0.86 1.18,0.2 0.66,0.61 1.11,0.4 0.81,-0.4 1.14,0.07 1.44,1.2 2.25,5.05 -0.65,0.25 -0.92,-2.54 -0.49,-0.46 -0.7,0.07 -0.53,1.54 1.03,2.29 -0.6,1.71 0.47,1.84 -0.38,1.26 -1,0.85 -2.52,-1.55 -1.48,0.1 -0.6,-0.52 0.67,-0.31 -0.17,-0.54 0.54,-0.24 -0.58,-1.01 v 0 z"
               title="Республика Адыгея" id="RU-AD" />
            <path
               d="m 159.57011,728.66082 0.37,-0.32 0.78,0.08 0.73,1.2 2.33,0.45 0.79,0.82 0.04,-0.5 0.71,0.05 0.07,-0.6 0.31,-0.08 0.75,1.16 -2.38,1.3 -0.29,1.05 1.19,0.69 0.36,-0.19 -0.09,-0.54 0.52,0.13 0.55,0.92 0.11,1.01 0.39,0.25 v 0 l -0.39,1.06 -1.71,1.02 0.11,0.98 -0.57,0.79 -0.1,1 0.3,0.71 v 0 l -0.69,-0.27 -0.13,-0.41 -1.06,0.45 -0.54,-0.21 -1.11,0.35 -1.33,-0.52 -0.38,0.43 -0.6,-0.29 -0.75,0.1 -1.47,-0.81 -0.13,-0.55 -0.55,0.28 -1.38,-0.61 -0.56,0.12 -0.46,-0.48 -0.44,0.06 -0.4,-0.59 -1.17,-0.45 v 0 l 0.05,-1.97 0.69,-1.79 0.82,-0.32 0.06,-1.5 0.57,-0.23 2.56,0.7 0.47,0.84 0.8,0.16 0.56,-1.08 h 0.65 l 0.6,-1.31 -0.08,-0.86 -0.7,-0.76 z"
               title="Карачаево-Черкесская республика" id="RU-KC" />
            <path
               d="m 187.10011,723.15082 0.86,-0.27 3.99,0.66 1.2,1.01 1.41,0.59 1.06,-0.43 v 0 l -0.34,1.43 h -0.4 l 0.03,0.59 0.26,0.08 -0.33,0.45 0.48,0.26 -0.73,0.34 0.15,0.35 0.66,-0.08 1.08,0.73 0.58,1.92 0.27,0.21 0.41,-0.33 0.25,0.29 0.36,1.15 1.77,2.59 -0.51,2.28 -0.47,0.38 h 0.38 l -0.15,0.37 0.26,0.31 1.23,-3.89 0.66,-0.26 0.27,0.26 -2.03,4.97 0.27,0.64 0.29,-0.49 0.36,0.59 -0.66,0.69 -0.43,1.98 1.7,1.36 0.31,2.39 2.45,3.06 2.14,4.13 0.96,0.45 -0.65,2.27 -1.17,1 -1.48,0.32 -1.19,2.56 -0.9,0.29 -0.93,-0.47 -0.63,0.3 -0.37,-0.57 -1.54,-0.49 -1.1,-2.52 -0.76,0.25 -0.08,-0.7 -0.69,-0.96 -0.41,-0.01 -0.46,-0.52 -0.19,-0.71 -1.39,0.5 -0.2,-0.69 -0.73,-0.15 -0.35,-0.62 -0.53,0.21 -0.48,-0.62 -0.55,0.13 -0.31,-0.29 -0.13,0.26 -0.31,-0.47 -0.86,0.14 -0.4,-0.73 -0.72,-0.17 -1.23,-0.88 0.2,-0.76 0.75,-0.15 -0.14,-0.65 0.34,-0.87 v 0 l 0.94,-0.54 0.27,-0.66 0.55,0.08 0.22,-0.94 1.32,-0.37 -0.63,-0.87 0.74,-0.61 0.91,-0.3 0.21,0.47 0.31,0.04 0.76,-0.77 -0.27,-0.39 0.11,-0.82 -0.53,-0.27 0.14,-1.34 -0.79,-2.03 1.64,-2.84 0.16,-0.84 -0.1,-0.42 -0.72,-0.38 0.01,-0.45 -0.58,-0.78 -1.09,0.91 0.1,0.59 -0.92,0.14 -0.53,0.51 0.03,-1.21 -1.33,-0.34 -0.84,0.33 -1.55,-0.73 v 0 l -0.03,-1.56 -0.56,-0.21 -0.93,0.39 -1.14,-0.54 0.2,-0.4 1.54,-0.46 0.3,-0.49 -0.08,-1 -1.25,-0.28 0.24,-0.31 -0.16,-0.63 1.4,-0.73 0.68,-1.03 0.33,-0.75 -0.39,-1.09 z"
               title="Республика Дагестан" id="RU-DA" />
            <path
               d="m 166.81011,735.54082 3,-0.81 0.55,-0.48 0.73,1.37 1.41,-0.42 1.52,0.44 0.6,-1.27 0.75,-0.56 2.31,0.88 0.9,-1.13 0.04,0.53 -0.71,0.94 -0.02,0.7 v 0 l -0.07,0.76 0.84,0.79 -0.19,2.23 -0.21,0.19 -0.66,-0.28 -0.72,0.5 -0.72,-0.34 -0.28,0.32 0.16,1.04 -0.38,0.44 -0.37,-0.07 -0.15,-0.24 0.36,-0.05 -0.27,-0.34 -0.47,0.24 -0.39,-0.6 -1.99,3.26 -0.65,0.29 -0.57,-0.36 -0.49,0.42 v 0 l -1.62,-0.38 -1.09,-0.97 -0.01,-0.55 -0.81,-0.25 -0.23,-0.53 -1.53,-0.04 0.02,0.36 -0.95,-0.47 v 0 l -0.3,-0.71 0.1,-1 0.57,-0.79 -0.11,-0.98 1.71,-1.02 z"
               title="Кабардино-Балкарская республика" id="RU-KB" />
            <path
               d="m 177.89011,735.73082 c 0.80784,0.50003 1.6074,-0.47575 2.46782,-0.25966 0.86094,0.12055 1.56042,1.0475 1.23643,1.90144 -0.19668,0.571 -0.90752,-0.46982 -0.96326,0.39151 -0.21273,1.19794 -0.8708,-0.78595 -1.46295,0.0819 -0.43675,0.71731 0.16696,1.34925 0.41413,1.94352 -0.18102,0.67634 -0.2271,1.52783 0.70583,1.49409 0.71447,0.49452 1.26829,1.22201 1.46196,2.07476 0.31697,0.75172 -0.48315,1.68015 -1.26257,1.5393 -0.48719,-0.25834 -0.51795,-0.67884 -0.67233,0.0612 -0.36094,0.87402 -1.4901,0.10278 -2.1777,0.59297 -0.77563,0.20907 -1.09715,1.14887 -1.98618,1.1269 -0.6831,0.0384 -1.31215,0.79006 -2.01188,0.34366 -1.29179,0.0221 0.0265,-1.52182 -0.64899,-1.82642 -0.7355,-0.23909 -1.12788,-0.99716 -1.8903,-1.14126 -0.80057,-0.43595 0.45171,-0.46316 0.79535,-0.2709 0.79033,-0.1413 0.91333,-1.13545 1.38108,-1.67606 0.36466,-0.59572 0.73327,-1.18902 1.09352,-1.78743 0.23609,0.35014 0.34772,0.76969 0.79122,0.4303 0.51931,0.13054 -0.24459,0.62219 0.40938,0.60614 1.02596,-0.20684 -0.31668,-2.09734 1.07217,-1.59191 0.5392,0.29378 0.98953,-0.66779 1.57173,-0.13295 0.46178,-0.47487 0.38245,-1.47373 0.38369,-2.16625 -0.15702,-0.66132 -1.09474,-0.91631 -0.70815,-1.73478 z"
               id="RU-SE" />
            <path
               d="m 179.70011,745.37082 c 0.09,-0.35333 0.18,-0.70667 0.27,-1.06 0.10209,0.49013 0.61784,0.70397 1.03813,0.60125 0.27472,-0.41874 1.06188,-0.69407 0.77937,-1.26875 -0.17528,-0.48954 -0.10402,-1.11447 -0.5575,-1.45125 -0.34435,-0.33828 -0.66814,-0.72261 -1.02529,-1.03224 -0.24824,-0.01 -0.49647,-0.0193 -0.74471,-0.029 -0.0431,-0.56348 0.28743,-1.27434 -0.01,-1.7375 -0.59915,-0.27908 -0.35652,-0.89122 -0.33874,-1.41438 -0.052,-0.42628 0.55093,-0.23354 0.82874,-0.34812 0.06,0.18 0.12,0.36 0.18,0.54 0.24472,0.071 0.47541,0.11975 0.47465,-0.19818 0.0651,-0.23394 0.13023,-0.46788 0.19535,-0.70182 0.89045,0.50075 1.8388,0.89118 2.75549,1.33589 0.0743,0.28849 -0.16464,0.68156 -0.0555,0.92786 0.27075,0.2035 0.88423,0.20208 0.73373,0.6563 -0.0277,0.44358 0.026,0.91723 -0.26155,1.29059 -0.2474,0.46645 -0.4948,0.93291 -0.7422,1.39936 0.0307,0.44346 0.46203,0.95816 0.125,1.33625 -0.20659,0.2168 -0.32647,0.45427 -0.22489,0.74449 0.0876,0.22684 -0.0134,0.40242 -0.18323,0.55926 -0.23682,0.59879 -0.78564,0.14859 -1.23063,0.0475 -0.29742,-0.11026 -0.62413,-0.30592 -0.74928,0.0859 -0.20232,0.30221 -0.40465,0.60441 -0.60697,0.90662 -0.21665,-0.39666 -0.43338,-0.79337 -0.64998,-1.19 z"
               id="RU-IN" />
            <path
               d="m 186.10011,733.31082 1.55,0.73 0.84,-0.33 1.33,0.34 -0.03,1.21 0.53,-0.51 0.92,-0.14 -0.1,-0.59 1.09,-0.91 0.58,0.78 -0.01,0.45 0.72,0.38 0.1,0.42 -0.16,0.84 -1.64,2.84 0.79,2.03 -0.14,1.34 0.53,0.27 -0.11,0.82 0.27,0.39 -0.76,0.77 -0.31,-0.04 -0.21,-0.47 -0.91,0.3 -0.74,0.61 0.63,0.87 -1.32,0.37 -0.22,0.94 -0.55,-0.08 -0.27,0.66 -0.94,0.54 v 0 l -1.46,-0.83 -1.71,0.15 -1.18,-1.6 -0.56,0.02 v 0 l 0.51,-0.64 -0.09,-0.63 0.44,-0.63 -0.29,-1.1 0.96,-1.81 0.06,-1.18 -0.8,-0.38 0.14,-0.89 -2.08,-0.97 v 0 l 0.23,-1.06 v 0 l 0.33,0.14 0.82,-0.54 0.16,-1.89 0.85,-0.21 0.28,0.82 1.05,0.03 0.53,-0.37 -0.04,-0.93 z"
               title="Чеченская республика" id="RU-CE" />
            <path
               d="m 167.33011,655.95082 c 1.44048,0.76416 2.62367,2.73198 4.36372,2.49539 0.98346,-0.94336 2.72222,-1.31848 3.64708,-1.46462 0.16245,2.30397 2.77756,-2.08843 4.12649,0.0553 1.46832,-0.85483 3.50384,0.38281 4.21945,1.74099 2.16229,1.50849 -0.55714,3.45921 0.46255,4.98522 1.38326,-0.6456 4.48735,0.67632 3.11832,-1.86219 1.578,-1.21962 3.18709,1.09531 3.13234,2.46987 1.30778,-0.89597 3.18544,0.0306 3.47235,-1.94453 1.96154,-0.18513 2.03583,3.07276 4.05324,2.41825 0.0681,1.07547 2.39833,0.64973 0.906,1.63099 -0.59228,1.62297 0.38761,4.07278 -2.06833,4.71589 -2.28151,0.82934 -1.2359,4.25532 -1.96326,6.2594 2.00745,0.72693 2.46671,3.16838 0.3103,4.04161 -1.19196,0.91312 -0.92633,4.59705 -2.59178,2.13392 -1.70343,-1.80928 -3.53852,-0.61586 -4.62057,1.02623 -0.77467,1.40345 -3.62943,0.86383 -3.80134,1.71593 1.88102,1.07662 -1.56358,-0.26298 -1.39485,1.41838 -2.06075,1.38021 3.17806,2.43403 0.80689,2.78972 -1.09706,-0.75853 -1.86178,-0.58069 -2.05887,0.66647 -0.74169,-0.45882 -1.53122,0.14524 -2.24978,-0.17226 1.03616,-2.38471 -3.34769,-0.90847 -1.25005,0.30844 1.92438,0.84049 -0.98173,2.81394 -1.96455,1.43689 -1.04094,0.51955 -0.95081,1.85518 -2.44269,2.16383 -1.46929,0.6402 0.23525,2.97262 -1.71452,2.80375 -0.8057,0.0297 -2.05226,0.9653 -2.46223,-0.0755 0.24172,-1.98513 -2.15221,0.75141 -2.21979,-1.38793 -1.1274,-2.28159 -2.31247,-4.96631 -5.37472,-4.76136 -1.93977,0.3178 -0.69282,-1.81732 -0.6263,-2.48474 0.44829,-1.0602 -0.26593,-2.24246 1.39485,-2.7034 1.66461,-0.34056 3.32736,-0.76768 3.1695,-2.75434 1.56686,-1.4967 -1.36241,-3.13733 -1.99616,-3.18376 0.33953,-2.0742 -3.74396,-0.0894 -2.33383,-2.45519 -0.86056,-2.13028 2.17176,-4.79655 -0.71329,-6.13421 -0.77058,-1.02132 -2.92434,-0.33066 -2.47112,-2.12436 -1.50178,-0.64037 -1.86627,-2.2681 -0.856,-3.50183 -0.56531,-1.55536 1.08821,-2.36242 -0.50757,-3.46576 -1.19428,-0.90459 -1.77697,-1.5264 0.0803,-1.9326 0.30584,-1.46268 2.80959,-1.14392 2.88168,-3.12543 1.27543,-1.23643 3.41459,0.1361 4.98595,-0.65742 0.96398,-0.19575 1.47028,-1.07086 2.5506,-1.08509 z"
               id="RU-VGG" />
            <path
               d="m 156.50011,668.00082 c 0.69488,0.57225 1.09477,1.53912 1.78175,2.02843 -0.22352,1.75137 2.75458,0.98552 3.36915,2.67299 1.01919,1.77724 -0.91549,3.78157 -0.41988,5.73979 -0.1684,1.78292 2.99234,0.087 2.68026,2.2968 2.10694,-0.17611 2.76472,2.37961 1.53424,3.76478 0.21203,2.12243 -3.875,1.17662 -4.25765,3.14595 0.82998,1.36577 -1.25014,2.51865 -0.16138,3.80197 1.82045,0.13926 4.20692,0.4959 4.87262,2.46422 0.71803,1.54147 1.46616,4.16451 3.31602,2.95932 -0.11966,3.01375 3.82982,-0.76705 4.11701,1.67363 0.94136,2.23689 1.36775,-0.57026 2.6093,-0.71742 0.78537,-2.53256 2.21296,1.2145 1.5246,2.32476 -0.40402,1.87624 -0.32657,3.89263 -2.28484,4.71882 -0.71196,0.96437 -1.73214,1.96419 -0.79709,2.69172 0.19879,0.75727 0.46325,3.04952 -0.69412,1.75458 -0.98411,-1.27819 -0.68749,3.00561 -2.60623,1.91606 -1.84784,-0.50993 -3.01731,-3.39204 -5.20172,-2.03227 -1.61629,-0.0999 -3.31941,-2.75495 -4.73858,-1.91906 0.88133,1.33626 1.28449,2.34025 -0.68391,2.17457 0.21548,1.42215 -0.89678,1.64234 -1.96389,1.33109 -0.78482,0.73368 0.96455,2.38504 -1.09934,1.89724 -1.4222,0.85931 -3.05478,0.61695 -3.64571,-1.20339 -1.01578,-0.38637 -0.39432,-2.44457 -1.88518,-1.20135 -1.15127,-1.24468 -4.27326,0.53062 -4.1781,-1.78646 0.0874,-1.62459 -2.74012,-1.31958 -1.42438,-3.20549 -0.78964,-1.50145 -3.61648,-0.95595 -5.04322,-1.32081 -1.05694,0.93181 -1.53773,2.2979 -3.21738,1.92582 -1.47712,0.95162 1.35258,-2.73603 -0.94523,-1.64282 -1.02499,-0.64429 1.63413,-1.12887 2.02677,-1.91668 0.73146,-0.58898 2.93817,0.39904 1.62086,-1.10611 0.21509,-1.49596 -0.49001,-2.12598 -2.0005,-1.6032 -0.0288,1.30755 -2.4518,1.21575 -3.26425,1.28248 -0.21161,-1.45401 3.49349,-1.39568 0.84058,-1.5313 -0.96107,0.64518 -3.647,2.05771 -2.09646,0.0376 -1.22138,-0.31131 0.28604,-1.7477 -0.15483,-2.70758 0.87626,-1.37369 3.71662,-0.68072 3.58002,-2.91277 1.08122,-0.92549 2.82801,0.0149 4.23498,-0.42517 1.47086,0.95193 3.81209,0.2405 2.90809,-1.79242 0.77825,-0.40789 1.45507,-2.16423 1.24248,-2.90662 -1.54377,0.1334 0.36732,-1.24214 -0.89072,-1.86784 0.42228,-1.5641 -2.4152,-1.02097 -0.93617,-2.78495 -0.0446,-2.25613 2.59393,0.20154 2.51629,-1.84232 -1.17773,0.57725 -3.00809,-0.73522 -2.65113,-1.65424 1.74259,0.43099 2.58837,-1.66314 3.49274,-2.45385 -0.62767,-1.95297 0.19564,-4.78265 2.65452,-3.4139 1.78144,-0.55357 3.68939,-1.04747 3.98961,-3.2796 0.79592,-1.16825 2.37933,-1.73699 2.33,-3.37499 z"
               id="RU-ROS" />
            <path
               d="m 172.92011,697.52082 c -1.03994,-2.19812 2.01107,-2.89889 2.67905,-4.49203 1.04566,0.0846 3.91146,0.40487 2.64696,-1.42202 -2.22931,-0.78043 0.70168,-3.17229 1.11366,-1.01191 -0.14432,1.1402 1.5753,0.38459 2.33272,0.37922 0.027,-1.65256 2.53627,-0.32721 3.49425,0.14352 0.82427,1.0131 2.9168,0.27515 2.26828,2.22627 0.68769,1.74987 2.26364,2.99188 3.66025,4.18155 1.5887,1.59279 2.65032,-3.177 3.57845,-0.82646 -2.60797,0.73486 -0.91748,3.03756 -0.0674,4.48913 0.49527,1.6999 2.20985,2.3387 3.23207,3.61397 1.19639,1.71283 -2.32685,1.93899 -1.58824,3.7492 -1.59943,-0.7865 -3.61247,2.28204 -1.03579,2.05659 0.40925,1.37815 1.15743,2.02599 2.53708,1.40838 0.79906,1.59125 -1.52848,3.5012 -1.95253,5.13562 1.18811,0.88327 4.0916,-1.42014 4.42213,0.55032 0.39223,1.02237 0.35505,3.77308 -0.53869,3.87804 -1.0845,-1.25313 0.1981,1.54618 -1.05542,1.83917 -1.11929,1.59072 -2.55654,1.64536 -4.40012,1.53652 -2.04119,-1.20762 -4.21271,-2.13266 -6.72123,-1.98516 -1.79204,-1.71683 -4.39557,-2.83041 -6.69578,-4.03861 -2.15797,-0.62466 -4.60055,-1.74736 -5.22878,-4.11997 -1.42083,-2.01046 -4.43981,-1.24867 -6.14379,-2.9573 -1.24574,-0.66173 -2.53357,-1.68856 -3.35542,0.0227 -1.07581,0.96691 -3.64367,2.05379 -3.31303,-0.29464 -1.30598,-0.72175 -0.4138,2.79795 -2.32694,1.5214 -1.15381,0.171 -3.10455,-1.21815 -1.71158,-2.36938 1.62568,1.03285 1.57725,-2.19781 3.33796,-1.51442 -0.42673,-0.75877 -1.6418,-3.04039 0.24233,-1.85717 1.67479,1.10918 3.65773,2.26822 5.60342,1.6682 1.24293,1.23687 4.25171,3.77836 4.9154,0.72265 0.44639,-1.81661 1.79127,1.20541 1.78423,-0.83761 -0.92106,-1.82566 -0.55954,-3.48361 1.2395,-4.64132 1.84859,-1.54773 1.76168,-4.70551 1.28185,-6.81529 -0.94823,-1.37177 -1.34304,0.90163 -2.34563,1.21916 -0.8122,2.05045 -1.55195,-0.24388 -1.88922,-1.15837 z"
               id="RU-KL" />
            <path
               d="m 193.37011,685.26082 c -0.75755,1.32404 -0.73366,2.30681 0.96719,2.46658 1.33911,0.35203 2.95091,1.35521 2.76062,2.90252 1.09577,0.51799 0.0967,0.7708 -0.60705,1.2443 1.09848,1.23113 0.43446,2.56842 2.15299,3.2165 0.92703,0.64636 0.14604,-2.02783 1.42708,-0.94484 1.40562,1.13304 3.5222,-0.5703 4.59714,1.01382 0.97149,1.10584 1.14524,3.26536 3.06547,2.92823 0.72947,1.13466 0.59612,2.70981 1.31114,3.90016 0.30917,1.16966 2.39012,2.5652 1.10835,3.55804 -1.21943,1.1111 -2.25523,-1.98951 -3.0616,-0.002 0.11811,1.14607 1.91228,1.45114 2.58779,2.5075 1.56307,0.36255 3.56645,1.80614 1.84128,3.33047 -0.38392,0.78925 -0.55935,1.81932 -1.78825,1.78518 -0.17474,0.82465 0.23491,1.64076 -0.36669,0.33444 -0.0648,-0.68027 -1.31938,-2.17527 -0.69978,-0.75066 0.26996,0.70986 0.69282,1.72879 0.55235,2.30088 -0.5921,0.12034 -1.82077,-2.18905 -1.43867,-0.71028 -0.97283,0.0178 -0.51105,1.19825 -1.3846,0.76499 -0.73116,0.952 -1.0881,2.33378 -2.47834,1.34164 -1.09799,0.63366 -1.88264,1.08495 -2.48057,-0.46984 -1.63901,-0.56414 -0.35533,1.46768 -0.29492,1.74292 -0.93961,-0.8516 0.47434,1.69299 -0.87027,0.54656 -0.67366,-0.43383 0.83858,-1.57403 -0.73051,-1.38974 -1.31309,0.0534 -2.56157,0.66978 -3.94012,0.36254 1.0916,-1.53619 2.21701,-3.44318 2.51925,-5.21331 -0.95323,-0.27234 -2.81865,1.00175 -2.46539,-0.94296 -0.30187,-0.87002 -3.14892,-0.68342 -1.42322,-1.84359 0.70146,-1.05991 2.53488,-0.13888 2.18611,-1.91633 0.99577,-0.83861 2.68216,-1.7643 1.02742,-3.10492 -1.12154,-0.47975 -1.96411,-1.56706 -2.63073,-2.68598 -0.35783,-1.38198 -2.55268,-2.92531 -1.15703,-4.15814 0.60404,-0.4128 2.07691,-1.14365 0.4646,-1.36206 -1.18878,0.19025 -1.78473,3.08151 -3.05602,1.41618 -1.48262,-1.02589 -2.68002,-2.40126 -3.64961,-3.90254 0.30284,-1.14204 -0.0302,-2.25493 -1.36287,-1.7161 -1.08443,-0.67248 -1.87911,-1.841 -2.98485,-2.37156 -1.79293,-0.39373 0.10691,-3.46917 1.40092,-2.45335 1.09693,-0.29145 -1.68355,-0.87712 -0.009,-1.05758 2.12707,0.14369 3.8776,-1.39594 5.01794,-3.03765 1.2773,-0.71629 2.66243,0.47104 3.68843,1.20368 0.37363,0.15351 0.42701,0.86669 0.20373,1.16615 z"
               id="RU-AST" />
         </g>
      </g>
   </g>
</svg>
